<svg width="343" height="40" viewBox="0 0 343 40" fill="none" xmlns="http://www.w3.org/2000/svg">
<g filter="url(#filter0_b_2_329)">
<rect width="343" height="40" rx="8" fill="#3B83F1"/>
<path d="M105.156 19.5469H103.578V18.4297H104.938C105.422 18.4297 105.815 18.3594 106.117 18.2188C106.419 18.0729 106.638 17.8724 106.773 17.6172C106.914 17.3568 106.984 17.0547 106.984 16.7109C106.984 16.4036 106.906 16.1224 106.75 15.8672C106.599 15.612 106.365 15.4089 106.047 15.2578C105.729 15.1016 105.32 15.0234 104.82 15.0234C104.445 15.0234 104.104 15.0911 103.797 15.2266C103.49 15.362 103.245 15.5521 103.062 15.7969C102.885 16.0417 102.797 16.3307 102.797 16.6641H100.836C100.836 16.1693 100.94 15.7266 101.148 15.3359C101.362 14.9401 101.651 14.6042 102.016 14.3281C102.385 14.0521 102.81 13.8411 103.289 13.6953C103.773 13.5443 104.284 13.4688 104.82 13.4688C105.445 13.4688 106.01 13.5391 106.516 13.6797C107.021 13.8151 107.456 14.0182 107.82 14.2891C108.185 14.5599 108.464 14.8984 108.656 15.3047C108.849 15.7057 108.945 16.1719 108.945 16.7031C108.945 17.0938 108.854 17.4609 108.672 17.8047C108.495 18.1484 108.24 18.4505 107.906 18.7109C107.573 18.9714 107.172 19.1771 106.703 19.3281C106.24 19.474 105.724 19.5469 105.156 19.5469ZM103.578 18.8672H105.156C105.786 18.8672 106.346 18.9323 106.836 19.0625C107.326 19.1927 107.74 19.3828 108.078 19.6328C108.417 19.8828 108.674 20.1927 108.852 20.5625C109.029 20.9271 109.117 21.3464 109.117 21.8203C109.117 22.3516 109.01 22.8255 108.797 23.2422C108.589 23.6536 108.292 24.0026 107.906 24.2891C107.521 24.5755 107.065 24.7917 106.539 24.9375C106.018 25.0833 105.445 25.1562 104.82 25.1562C104.315 25.1562 103.815 25.0938 103.32 24.9688C102.831 24.8385 102.385 24.6406 101.984 24.375C101.589 24.1042 101.271 23.7604 101.031 23.3438C100.792 22.9271 100.672 22.4271 100.672 21.8438H102.641C102.641 22.1667 102.732 22.4635 102.914 22.7344C103.102 23 103.357 23.2135 103.68 23.375C104.008 23.5312 104.388 23.6094 104.82 23.6094C105.315 23.6094 105.734 23.5312 106.078 23.375C106.427 23.2188 106.693 23.0052 106.875 22.7344C107.062 22.4635 107.156 22.1589 107.156 21.8203C107.156 21.4974 107.107 21.2188 107.008 20.9844C106.914 20.7448 106.773 20.5521 106.586 20.4062C106.398 20.2552 106.167 20.1432 105.891 20.0703C105.615 19.9974 105.297 19.9609 104.938 19.9609H103.578V18.8672ZM115.555 23.3047V19.2734C115.555 18.9714 115.5 18.7109 115.391 18.4922C115.281 18.2734 115.115 18.1042 114.891 17.9844C114.672 17.8646 114.396 17.8047 114.062 17.8047C113.755 17.8047 113.49 17.8568 113.266 17.9609C113.042 18.0651 112.867 18.2057 112.742 18.3828C112.617 18.5599 112.555 18.7604 112.555 18.9844H110.68C110.68 18.651 110.76 18.3281 110.922 18.0156C111.083 17.7031 111.318 17.4245 111.625 17.1797C111.932 16.9349 112.299 16.7422 112.727 16.6016C113.154 16.4609 113.633 16.3906 114.164 16.3906C114.799 16.3906 115.362 16.4974 115.852 16.7109C116.346 16.9245 116.734 17.2474 117.016 17.6797C117.302 18.1068 117.445 18.6432 117.445 19.2891V23.0469C117.445 23.4323 117.471 23.7786 117.523 24.0859C117.581 24.388 117.661 24.651 117.766 24.875V25H115.836C115.747 24.7969 115.677 24.5391 115.625 24.2266C115.578 23.9089 115.555 23.6016 115.555 23.3047ZM115.828 19.8594L115.844 21.0234H114.492C114.143 21.0234 113.836 21.0573 113.57 21.125C113.305 21.1875 113.083 21.2812 112.906 21.4062C112.729 21.5312 112.596 21.6823 112.508 21.8594C112.419 22.0365 112.375 22.237 112.375 22.4609C112.375 22.6849 112.427 22.8906 112.531 23.0781C112.635 23.2604 112.786 23.4036 112.984 23.5078C113.188 23.612 113.432 23.6641 113.719 23.6641C114.104 23.6641 114.44 23.5859 114.727 23.4297C115.018 23.2682 115.247 23.0729 115.414 22.8438C115.581 22.6094 115.669 22.388 115.68 22.1797L116.289 23.0156C116.227 23.2292 116.12 23.4583 115.969 23.7031C115.818 23.9479 115.62 24.1823 115.375 24.4062C115.135 24.625 114.846 24.8047 114.508 24.9453C114.174 25.0859 113.789 25.1562 113.352 25.1562C112.799 25.1562 112.307 25.0469 111.875 24.8281C111.443 24.6042 111.104 24.3047 110.859 23.9297C110.615 23.5495 110.492 23.1198 110.492 22.6406C110.492 22.1927 110.576 21.7969 110.742 21.4531C110.914 21.1042 111.164 20.8125 111.492 20.5781C111.826 20.3438 112.232 20.1667 112.711 20.0469C113.19 19.9219 113.737 19.8594 114.352 19.8594H115.828ZM125.086 16.5469V18.0469H120.914V16.5469H125.086ZM121.359 16.5469V25H119.477V16.5469H121.359ZM126.562 16.5469V25H124.672V16.5469H126.562ZM130.5 22.25L133.82 16.5469H135.703V25H133.82V19.2891L130.5 25H128.617V16.5469H130.5V22.25ZM141.148 23.6562C141.456 23.6562 141.732 23.5964 141.977 23.4766C142.227 23.3516 142.427 23.1797 142.578 22.9609C142.734 22.7422 142.82 22.4896 142.836 22.2031H144.609C144.599 22.75 144.438 23.2474 144.125 23.6953C143.812 24.1432 143.398 24.5 142.883 24.7656C142.367 25.026 141.797 25.1562 141.172 25.1562C140.526 25.1562 139.964 25.0469 139.484 24.8281C139.005 24.6042 138.607 24.2969 138.289 23.9062C137.971 23.5156 137.732 23.0651 137.57 22.5547C137.414 22.0443 137.336 21.4974 137.336 20.9141V20.6406C137.336 20.0573 137.414 19.5104 137.57 19C137.732 18.4844 137.971 18.0312 138.289 17.6406C138.607 17.25 139.005 16.9453 139.484 16.7266C139.964 16.5026 140.523 16.3906 141.164 16.3906C141.841 16.3906 142.435 16.526 142.945 16.7969C143.456 17.0625 143.857 17.4349 144.148 17.9141C144.445 18.388 144.599 18.9401 144.609 19.5703H142.836C142.82 19.2578 142.742 18.9766 142.602 18.7266C142.466 18.4714 142.273 18.2682 142.023 18.1172C141.779 17.9661 141.484 17.8906 141.141 17.8906C140.76 17.8906 140.445 17.9688 140.195 18.125C139.945 18.276 139.75 18.4844 139.609 18.75C139.469 19.0104 139.367 19.3047 139.305 19.6328C139.247 19.9557 139.219 20.2917 139.219 20.6406V20.9141C139.219 21.263 139.247 21.6016 139.305 21.9297C139.362 22.2578 139.461 22.5521 139.602 22.8125C139.747 23.0677 139.945 23.2734 140.195 23.4297C140.445 23.5807 140.763 23.6562 141.148 23.6562ZM150.82 23.3047V19.2734C150.82 18.9714 150.766 18.7109 150.656 18.4922C150.547 18.2734 150.38 18.1042 150.156 17.9844C149.938 17.8646 149.661 17.8047 149.328 17.8047C149.021 17.8047 148.755 17.8568 148.531 17.9609C148.307 18.0651 148.133 18.2057 148.008 18.3828C147.883 18.5599 147.82 18.7604 147.82 18.9844H145.945C145.945 18.651 146.026 18.3281 146.188 18.0156C146.349 17.7031 146.583 17.4245 146.891 17.1797C147.198 16.9349 147.565 16.7422 147.992 16.6016C148.419 16.4609 148.898 16.3906 149.43 16.3906C150.065 16.3906 150.628 16.4974 151.117 16.7109C151.612 16.9245 152 17.2474 152.281 17.6797C152.568 18.1068 152.711 18.6432 152.711 19.2891V23.0469C152.711 23.4323 152.737 23.7786 152.789 24.0859C152.846 24.388 152.927 24.651 153.031 24.875V25H151.102C151.013 24.7969 150.943 24.5391 150.891 24.2266C150.844 23.9089 150.82 23.6016 150.82 23.3047ZM151.094 19.8594L151.109 21.0234H149.758C149.409 21.0234 149.102 21.0573 148.836 21.125C148.57 21.1875 148.349 21.2812 148.172 21.4062C147.995 21.5312 147.862 21.6823 147.773 21.8594C147.685 22.0365 147.641 22.237 147.641 22.4609C147.641 22.6849 147.693 22.8906 147.797 23.0781C147.901 23.2604 148.052 23.4036 148.25 23.5078C148.453 23.612 148.698 23.6641 148.984 23.6641C149.37 23.6641 149.706 23.5859 149.992 23.4297C150.284 23.2682 150.513 23.0729 150.68 22.8438C150.846 22.6094 150.935 22.388 150.945 22.1797L151.555 23.0156C151.492 23.2292 151.385 23.4583 151.234 23.7031C151.083 23.9479 150.885 24.1823 150.641 24.4062C150.401 24.625 150.112 24.8047 149.773 24.9453C149.44 25.0859 149.055 25.1562 148.617 25.1562C148.065 25.1562 147.573 25.0469 147.141 24.8281C146.708 24.6042 146.37 24.3047 146.125 23.9297C145.88 23.5495 145.758 23.1198 145.758 22.6406C145.758 22.1927 145.841 21.7969 146.008 21.4531C146.18 21.1042 146.43 20.8125 146.758 20.5781C147.091 20.3438 147.497 20.1667 147.977 20.0469C148.456 19.9219 149.003 19.8594 149.617 19.8594H151.094ZM158.477 16.5469V25H156.586V16.5469H158.477ZM161.25 16.5469V18.0312H153.859V16.5469H161.25ZM163.906 19.2344H166.398C167.128 19.2344 167.747 19.3568 168.258 19.6016C168.768 19.8464 169.156 20.1875 169.422 20.625C169.693 21.0573 169.828 21.5521 169.828 22.1094C169.828 22.5208 169.753 22.9036 169.602 23.2578C169.451 23.6068 169.227 23.9115 168.93 24.1719C168.638 24.4323 168.279 24.6354 167.852 24.7812C167.43 24.9271 166.945 25 166.398 25H162.656V16.5469H164.547V23.5078H166.398C166.773 23.5078 167.073 23.4427 167.297 23.3125C167.521 23.1823 167.682 23.013 167.781 22.8047C167.885 22.5964 167.938 22.375 167.938 22.1406C167.938 21.901 167.885 21.6745 167.781 21.4609C167.682 21.2474 167.521 21.0729 167.297 20.9375C167.073 20.8021 166.773 20.7344 166.398 20.7344H163.906V19.2344ZM174.789 23.6562C175.096 23.6562 175.372 23.5964 175.617 23.4766C175.867 23.3516 176.068 23.1797 176.219 22.9609C176.375 22.7422 176.461 22.4896 176.477 22.2031H178.25C178.24 22.75 178.078 23.2474 177.766 23.6953C177.453 24.1432 177.039 24.5 176.523 24.7656C176.008 25.026 175.438 25.1562 174.812 25.1562C174.167 25.1562 173.604 25.0469 173.125 24.8281C172.646 24.6042 172.247 24.2969 171.93 23.9062C171.612 23.5156 171.372 23.0651 171.211 22.5547C171.055 22.0443 170.977 21.4974 170.977 20.9141V20.6406C170.977 20.0573 171.055 19.5104 171.211 19C171.372 18.4844 171.612 18.0312 171.93 17.6406C172.247 17.25 172.646 16.9453 173.125 16.7266C173.604 16.5026 174.164 16.3906 174.805 16.3906C175.482 16.3906 176.076 16.526 176.586 16.7969C177.096 17.0625 177.497 17.4349 177.789 17.9141C178.086 18.388 178.24 18.9401 178.25 19.5703H176.477C176.461 19.2578 176.383 18.9766 176.242 18.7266C176.107 18.4714 175.914 18.2682 175.664 18.1172C175.419 17.9661 175.125 17.8906 174.781 17.8906C174.401 17.8906 174.086 17.9688 173.836 18.125C173.586 18.276 173.391 18.4844 173.25 18.75C173.109 19.0104 173.008 19.3047 172.945 19.6328C172.888 19.9557 172.859 20.2917 172.859 20.6406V20.9141C172.859 21.263 172.888 21.6016 172.945 21.9297C173.003 22.2578 173.102 22.5521 173.242 22.8125C173.388 23.0677 173.586 23.2734 173.836 23.4297C174.086 23.5807 174.404 23.6562 174.789 23.6562ZM181.477 20.8672H183.43L181.031 25H179.086L181.477 20.8672ZM182.852 16.5469H186.477V25H184.602V18.0312H182.852C182.497 18.0312 182.206 18.0938 181.977 18.2188C181.747 18.3385 181.578 18.4974 181.469 18.6953C181.359 18.888 181.305 19.0859 181.305 19.2891C181.305 19.4922 181.354 19.6875 181.453 19.875C181.557 20.0625 181.716 20.2161 181.93 20.3359C182.148 20.4557 182.422 20.5156 182.75 20.5156H185.234V21.8906H182.75C182.229 21.8906 181.763 21.8255 181.352 21.6953C180.94 21.5599 180.591 21.375 180.305 21.1406C180.018 20.901 179.799 20.6224 179.648 20.3047C179.497 19.9818 179.422 19.6302 179.422 19.25C179.422 18.8594 179.5 18.5 179.656 18.1719C179.812 17.8438 180.036 17.5573 180.328 17.3125C180.625 17.0677 180.984 16.8802 181.406 16.75C181.833 16.6146 182.315 16.5469 182.852 16.5469ZM196.664 21.3828H193.961L193.945 20.0547H196.164C196.529 20.0547 196.828 20.0182 197.062 19.9453C197.302 19.8724 197.479 19.763 197.594 19.6172C197.708 19.4661 197.766 19.2839 197.766 19.0703C197.766 18.8932 197.732 18.7396 197.664 18.6094C197.596 18.474 197.492 18.3646 197.352 18.2812C197.216 18.1927 197.044 18.1302 196.836 18.0938C196.633 18.0521 196.396 18.0312 196.125 18.0312H194.586V25H192.703V16.5469H196.125C196.667 16.5469 197.154 16.5938 197.586 16.6875C198.023 16.7812 198.396 16.9245 198.703 17.1172C199.01 17.3099 199.245 17.5547 199.406 17.8516C199.573 18.1432 199.656 18.487 199.656 18.8828C199.656 19.1432 199.599 19.388 199.484 19.6172C199.375 19.8464 199.211 20.0495 198.992 20.2266C198.773 20.4036 198.505 20.5495 198.188 20.6641C197.87 20.7734 197.505 20.8411 197.094 20.8672L196.664 21.3828ZM196.664 25H193.414L194.164 23.5156H196.664C196.997 23.5156 197.273 23.474 197.492 23.3906C197.711 23.3073 197.872 23.1875 197.977 23.0312C198.086 22.8698 198.141 22.6797 198.141 22.4609C198.141 22.237 198.089 22.0443 197.984 21.8828C197.88 21.7214 197.719 21.599 197.5 21.5156C197.286 21.4271 197.008 21.3828 196.664 21.3828H194.516L194.531 20.0547H197.086L197.625 20.5703C198.161 20.6068 198.607 20.7214 198.961 20.9141C199.315 21.1068 199.581 21.349 199.758 21.6406C199.935 21.9323 200.023 22.25 200.023 22.5938C200.023 22.9896 199.948 23.3385 199.797 23.6406C199.651 23.9427 199.432 24.1953 199.141 24.3984C198.854 24.5964 198.503 24.7474 198.086 24.8516C197.669 24.9505 197.195 25 196.664 25ZM205.273 20.8672V20.6875C205.273 20.0781 205.362 19.513 205.539 18.9922C205.716 18.4661 205.971 18.0104 206.305 17.625C206.643 17.2344 207.055 16.9323 207.539 16.7188C208.029 16.5 208.581 16.3906 209.195 16.3906C209.815 16.3906 210.367 16.5 210.852 16.7188C211.341 16.9323 211.755 17.2344 212.094 17.625C212.432 18.0104 212.69 18.4661 212.867 18.9922C213.044 19.513 213.133 20.0781 213.133 20.6875V20.8672C213.133 21.4766 213.044 22.0417 212.867 22.5625C212.69 23.0833 212.432 23.5391 212.094 23.9297C211.755 24.3151 211.344 24.6172 210.859 24.8359C210.375 25.0495 209.826 25.1562 209.211 25.1562C208.591 25.1562 208.036 25.0495 207.547 24.8359C207.062 24.6172 206.651 24.3151 206.312 23.9297C205.974 23.5391 205.716 23.0833 205.539 22.5625C205.362 22.0417 205.273 21.4766 205.273 20.8672ZM207.156 20.6875V20.8672C207.156 21.2474 207.195 21.6068 207.273 21.9453C207.352 22.2839 207.474 22.5807 207.641 22.8359C207.807 23.0911 208.021 23.2917 208.281 23.4375C208.542 23.5833 208.852 23.6562 209.211 23.6562C209.56 23.6562 209.862 23.5833 210.117 23.4375C210.378 23.2917 210.591 23.0911 210.758 22.8359C210.924 22.5807 211.047 22.2839 211.125 21.9453C211.208 21.6068 211.25 21.2474 211.25 20.8672V20.6875C211.25 20.3125 211.208 19.9583 211.125 19.625C211.047 19.2865 210.922 18.987 210.75 18.7266C210.583 18.4661 210.37 18.263 210.109 18.1172C209.854 17.9661 209.549 17.8906 209.195 17.8906C208.841 17.8906 208.534 17.9661 208.273 18.1172C208.018 18.263 207.807 18.4661 207.641 18.7266C207.474 18.987 207.352 19.2865 207.273 19.625C207.195 19.9583 207.156 20.3125 207.156 20.6875ZM224.75 20.875V21.0391C224.75 21.638 224.682 22.1901 224.547 22.6953C224.417 23.1953 224.221 23.6302 223.961 24C223.701 24.3698 223.378 24.6562 222.992 24.8594C222.612 25.0625 222.169 25.1641 221.664 25.1641C221.221 25.1641 220.836 25.0885 220.508 24.9375C220.18 24.7865 219.904 24.5755 219.68 24.3047C219.456 24.0286 219.276 23.7057 219.141 23.3359C219.005 22.9609 218.906 22.5495 218.844 22.1016V19.6562C218.906 19.1771 219.003 18.7396 219.133 18.3438C219.268 17.9427 219.448 17.5964 219.672 17.3047C219.901 17.013 220.177 16.7891 220.5 16.6328C220.823 16.4714 221.206 16.3906 221.648 16.3906C222.055 16.3906 222.422 16.4635 222.75 16.6094C223.078 16.75 223.367 16.9531 223.617 17.2188C223.867 17.4792 224.076 17.7943 224.242 18.1641C224.409 18.5286 224.534 18.9401 224.617 19.3984C224.706 19.8568 224.75 20.349 224.75 20.875ZM222.867 21.0391V20.875C222.867 20.5469 222.846 20.2344 222.805 19.9375C222.763 19.6406 222.698 19.3698 222.609 19.125C222.526 18.875 222.417 18.6589 222.281 18.4766C222.146 18.2891 221.982 18.1458 221.789 18.0469C221.602 17.9427 221.383 17.8906 221.133 17.8906C220.794 17.8906 220.513 17.9479 220.289 18.0625C220.07 18.1719 219.904 18.3281 219.789 18.5312C219.68 18.7292 219.609 18.9583 219.578 19.2188V22.5469C219.615 22.7656 219.69 22.9583 219.805 23.125C219.924 23.2917 220.094 23.4245 220.312 23.5234C220.531 23.6172 220.81 23.6641 221.148 23.6641C221.461 23.6641 221.724 23.599 221.938 23.4688C222.156 23.3333 222.333 23.1458 222.469 22.9062C222.609 22.6667 222.711 22.388 222.773 22.0703C222.836 21.7526 222.867 21.4089 222.867 21.0391ZM214.391 21.0391V20.875C214.391 20.349 214.432 19.8568 214.516 19.3984C214.599 18.9401 214.724 18.5286 214.891 18.1641C215.062 17.7943 215.273 17.4792 215.523 17.2188C215.773 16.9531 216.062 16.75 216.391 16.6094C216.719 16.4635 217.086 16.3906 217.492 16.3906C217.93 16.3906 218.307 16.4714 218.625 16.6328C218.943 16.7891 219.211 17.013 219.43 17.3047C219.654 17.5964 219.831 17.9427 219.961 18.3438C220.096 18.7396 220.195 19.1771 220.258 19.6562V22.0078C220.201 22.4661 220.104 22.888 219.969 23.2734C219.833 23.6589 219.656 23.9922 219.438 24.2734C219.219 24.5547 218.948 24.7734 218.625 24.9297C218.302 25.0859 217.919 25.1641 217.477 25.1641C216.977 25.1641 216.534 25.0625 216.148 24.8594C215.763 24.6562 215.44 24.3698 215.18 24C214.919 23.6302 214.721 23.1953 214.586 22.6953C214.456 22.1901 214.391 21.638 214.391 21.0391ZM216.273 20.875V21.0391C216.273 21.4089 216.302 21.7526 216.359 22.0703C216.422 22.388 216.518 22.6667 216.648 22.9062C216.779 23.1406 216.951 23.3255 217.164 23.4609C217.378 23.5964 217.641 23.6641 217.953 23.6641C218.297 23.6641 218.578 23.612 218.797 23.5078C219.016 23.4036 219.182 23.2604 219.297 23.0781C219.417 22.8958 219.495 22.6875 219.531 22.4531V19.2188C219.5 18.9583 219.427 18.7292 219.312 18.5312C219.198 18.3281 219.031 18.1719 218.812 18.0625C218.594 17.9479 218.312 17.8906 217.969 17.8906C217.656 17.8906 217.391 17.9688 217.172 18.125C216.958 18.2812 216.784 18.4974 216.648 18.7734C216.518 19.0443 216.422 19.362 216.359 19.7266C216.302 20.0859 216.273 20.4688 216.273 20.875ZM218.586 28.25V13H220.477V28.25H218.586ZM228.312 22.25L231.633 16.5469H233.516V25H231.633V19.2891L228.312 25H226.43V16.5469H228.312V22.25ZM238.961 23.6562C239.268 23.6562 239.544 23.5964 239.789 23.4766C240.039 23.3516 240.24 23.1797 240.391 22.9609C240.547 22.7422 240.633 22.4896 240.648 22.2031H242.422C242.411 22.75 242.25 23.2474 241.938 23.6953C241.625 24.1432 241.211 24.5 240.695 24.7656C240.18 25.026 239.609 25.1562 238.984 25.1562C238.339 25.1562 237.776 25.0469 237.297 24.8281C236.818 24.6042 236.419 24.2969 236.102 23.9062C235.784 23.5156 235.544 23.0651 235.383 22.5547C235.227 22.0443 235.148 21.4974 235.148 20.9141V20.6406C235.148 20.0573 235.227 19.5104 235.383 19C235.544 18.4844 235.784 18.0312 236.102 17.6406C236.419 17.25 236.818 16.9453 237.297 16.7266C237.776 16.5026 238.336 16.3906 238.977 16.3906C239.654 16.3906 240.247 16.526 240.758 16.7969C241.268 17.0625 241.669 17.4349 241.961 17.9141C242.258 18.388 242.411 18.9401 242.422 19.5703H240.648C240.633 19.2578 240.555 18.9766 240.414 18.7266C240.279 18.4714 240.086 18.2682 239.836 18.1172C239.591 17.9661 239.297 17.8906 238.953 17.8906C238.573 17.8906 238.258 17.9688 238.008 18.125C237.758 18.276 237.562 18.4844 237.422 18.75C237.281 19.0104 237.18 19.3047 237.117 19.6328C237.06 19.9557 237.031 20.2917 237.031 20.6406V20.9141C237.031 21.263 237.06 21.6016 237.117 21.9297C237.174 22.2578 237.273 22.5521 237.414 22.8125C237.56 23.0677 237.758 23.2734 238.008 23.4297C238.258 23.5807 238.576 23.6562 238.961 23.6562Z" fill="white"/>
</g>
<defs>
<filter id="filter0_b_2_329" x="-4" y="-4" width="351" height="48" filterUnits="userSpaceOnUse" color-interpolation-filters="sRGB">
<feFlood flood-opacity="0" result="BackgroundImageFix"/>
<feGaussianBlur in="BackgroundImageFix" stdDeviation="2"/>
<feComposite in2="SourceAlpha" operator="in" result="effect1_backgroundBlur_2_329"/>
<feBlend mode="normal" in="SourceGraphic" in2="effect1_backgroundBlur_2_329" result="shape"/>
</filter>
</defs>
</svg>
