<svg width="343" height="40" viewBox="0 0 343 40" fill="none" xmlns="http://www.w3.org/2000/svg">
<g filter="url(#filter0_b_2_327)">
<path d="M102.758 13.625V25H100.805V15.1875H95.75V25H93.7969V13.625H102.758ZM106.82 18.1719V28.25H104.938V16.5469H106.672L106.82 18.1719ZM112.328 20.6953V20.8594C112.328 21.474 112.255 22.0443 112.109 22.5703C111.969 23.0911 111.758 23.5469 111.477 23.9375C111.201 24.3229 110.859 24.6224 110.453 24.8359C110.047 25.0495 109.578 25.1562 109.047 25.1562C108.521 25.1562 108.06 25.0599 107.664 24.8672C107.273 24.6693 106.943 24.3906 106.672 24.0312C106.401 23.6719 106.182 23.25 106.016 22.7656C105.854 22.276 105.74 21.7396 105.672 21.1562V20.5234C105.74 19.9036 105.854 19.3411 106.016 18.8359C106.182 18.3307 106.401 17.8958 106.672 17.5312C106.943 17.1667 107.273 16.8854 107.664 16.6875C108.055 16.4896 108.51 16.3906 109.031 16.3906C109.562 16.3906 110.034 16.4948 110.445 16.7031C110.857 16.9062 111.203 17.1979 111.484 17.5781C111.766 17.9531 111.977 18.4062 112.117 18.9375C112.258 19.4635 112.328 20.0495 112.328 20.6953ZM110.445 20.8594V20.6953C110.445 20.3047 110.409 19.9427 110.336 19.6094C110.263 19.2708 110.148 18.974 109.992 18.7188C109.836 18.4635 109.635 18.2656 109.391 18.125C109.151 17.9792 108.862 17.9062 108.523 17.9062C108.19 17.9062 107.904 17.9635 107.664 18.0781C107.424 18.1875 107.224 18.3411 107.062 18.5391C106.901 18.737 106.776 18.9688 106.688 19.2344C106.599 19.4948 106.536 19.7786 106.5 20.0859V21.6016C106.562 21.9766 106.669 22.3203 106.82 22.6328C106.971 22.9453 107.185 23.1953 107.461 23.3828C107.742 23.5651 108.102 23.6562 108.539 23.6562C108.878 23.6562 109.167 23.5833 109.406 23.4375C109.646 23.2917 109.841 23.0911 109.992 22.8359C110.148 22.5755 110.263 22.276 110.336 21.9375C110.409 21.599 110.445 21.2396 110.445 20.8594ZM113.57 20.8672V20.6875C113.57 20.0781 113.659 19.513 113.836 18.9922C114.013 18.4661 114.268 18.0104 114.602 17.625C114.94 17.2344 115.352 16.9323 115.836 16.7188C116.326 16.5 116.878 16.3906 117.492 16.3906C118.112 16.3906 118.664 16.5 119.148 16.7188C119.638 16.9323 120.052 17.2344 120.391 17.625C120.729 18.0104 120.987 18.4661 121.164 18.9922C121.341 19.513 121.43 20.0781 121.43 20.6875V20.8672C121.43 21.4766 121.341 22.0417 121.164 22.5625C120.987 23.0833 120.729 23.5391 120.391 23.9297C120.052 24.3151 119.641 24.6172 119.156 24.8359C118.672 25.0495 118.122 25.1562 117.508 25.1562C116.888 25.1562 116.333 25.0495 115.844 24.8359C115.359 24.6172 114.948 24.3151 114.609 23.9297C114.271 23.5391 114.013 23.0833 113.836 22.5625C113.659 22.0417 113.57 21.4766 113.57 20.8672ZM115.453 20.6875V20.8672C115.453 21.2474 115.492 21.6068 115.57 21.9453C115.648 22.2839 115.771 22.5807 115.938 22.8359C116.104 23.0911 116.318 23.2917 116.578 23.4375C116.839 23.5833 117.148 23.6562 117.508 23.6562C117.857 23.6562 118.159 23.5833 118.414 23.4375C118.674 23.2917 118.888 23.0911 119.055 22.8359C119.221 22.5807 119.344 22.2839 119.422 21.9453C119.505 21.6068 119.547 21.2474 119.547 20.8672V20.6875C119.547 20.3125 119.505 19.9583 119.422 19.625C119.344 19.2865 119.219 18.987 119.047 18.7266C118.88 18.4661 118.667 18.263 118.406 18.1172C118.151 17.9661 117.846 17.8906 117.492 17.8906C117.138 17.8906 116.831 17.9661 116.57 18.1172C116.315 18.263 116.104 18.4661 115.938 18.7266C115.771 18.987 115.648 19.2865 115.57 19.625C115.492 19.9583 115.453 20.3125 115.453 20.6875ZM128.562 16.5469V18.0469H124.438V16.5469H128.562ZM130.039 16.5469V25H128.156V16.5469H130.039ZM123.977 16.5469H125.836L125.609 20.7266C125.578 21.3464 125.516 21.8932 125.422 22.3672C125.333 22.8359 125.214 23.2396 125.062 23.5781C124.911 23.9115 124.727 24.1823 124.508 24.3906C124.289 24.599 124.034 24.7526 123.742 24.8516C123.451 24.9505 123.122 25 122.758 25H122.172L122.164 23.4531L122.461 23.4297C122.654 23.4141 122.82 23.3646 122.961 23.2812C123.102 23.1927 123.221 23.0677 123.32 22.9062C123.424 22.7448 123.508 22.5365 123.57 22.2812C123.638 22.026 123.69 21.724 123.727 21.375C123.768 21.026 123.799 20.6198 123.82 20.1562L123.977 16.5469ZM131.68 20.8672V20.6875C131.68 20.0781 131.768 19.513 131.945 18.9922C132.122 18.4661 132.378 18.0104 132.711 17.625C133.049 17.2344 133.461 16.9323 133.945 16.7188C134.435 16.5 134.987 16.3906 135.602 16.3906C136.221 16.3906 136.773 16.5 137.258 16.7188C137.747 16.9323 138.161 17.2344 138.5 17.625C138.839 18.0104 139.096 18.4661 139.273 18.9922C139.451 19.513 139.539 20.0781 139.539 20.6875V20.8672C139.539 21.4766 139.451 22.0417 139.273 22.5625C139.096 23.0833 138.839 23.5391 138.5 23.9297C138.161 24.3151 137.75 24.6172 137.266 24.8359C136.781 25.0495 136.232 25.1562 135.617 25.1562C134.997 25.1562 134.443 25.0495 133.953 24.8359C133.469 24.6172 133.057 24.3151 132.719 23.9297C132.38 23.5391 132.122 23.0833 131.945 22.5625C131.768 22.0417 131.68 21.4766 131.68 20.8672ZM133.562 20.6875V20.8672C133.562 21.2474 133.602 21.6068 133.68 21.9453C133.758 22.2839 133.88 22.5807 134.047 22.8359C134.214 23.0911 134.427 23.2917 134.688 23.4375C134.948 23.5833 135.258 23.6562 135.617 23.6562C135.966 23.6562 136.268 23.5833 136.523 23.4375C136.784 23.2917 136.997 23.0911 137.164 22.8359C137.331 22.5807 137.453 22.2839 137.531 21.9453C137.615 21.6068 137.656 21.2474 137.656 20.8672V20.6875C137.656 20.3125 137.615 19.9583 137.531 19.625C137.453 19.2865 137.328 18.987 137.156 18.7266C136.99 18.4661 136.776 18.263 136.516 18.1172C136.26 17.9661 135.956 17.8906 135.602 17.8906C135.247 17.8906 134.94 17.9661 134.68 18.1172C134.424 18.263 134.214 18.4661 134.047 18.7266C133.88 18.987 133.758 19.2865 133.68 19.625C133.602 19.9583 133.562 20.3125 133.562 20.6875ZM143.75 21.5859L140.375 16.5469H142.688L144.656 19.875H146.305L146.062 21.5859H143.75ZM144.703 21.3125L142.539 25H140.227L143.289 20.2422L144.703 21.3125ZM147.438 16.5469V25H145.562V16.5469H147.438ZM152.648 16.5469L149.273 21.5859H146.953L146.703 19.875H148.359L150.328 16.5469H152.648ZM150.477 25L148.305 21.3125L149.766 20.2422L152.812 25H150.477ZM155.953 22.25L159.273 16.5469H161.156V25H159.273V19.2891L155.953 25H154.07V16.5469H155.953V22.25ZM167.07 16.5469V25H165.18V16.5469H167.07ZM169.844 16.5469V18.0312H162.453V16.5469H169.844ZM172.5 19.2344H174.992C175.721 19.2344 176.341 19.3568 176.852 19.6016C177.362 19.8464 177.75 20.1875 178.016 20.625C178.286 21.0573 178.422 21.5521 178.422 22.1094C178.422 22.5208 178.346 22.9036 178.195 23.2578C178.044 23.6068 177.82 23.9115 177.523 24.1719C177.232 24.4323 176.872 24.6354 176.445 24.7812C176.023 24.9271 175.539 25 174.992 25H171.25V16.5469H173.141V23.5078H174.992C175.367 23.5078 175.667 23.4427 175.891 23.3125C176.115 23.1823 176.276 23.013 176.375 22.8047C176.479 22.5964 176.531 22.375 176.531 22.1406C176.531 21.901 176.479 21.6745 176.375 21.4609C176.276 21.2474 176.115 21.0729 175.891 20.9375C175.667 20.8021 175.367 20.7344 174.992 20.7344H172.5V19.2344ZM188.938 22.7188L191.453 16.5469H193.086L189.578 25H188.297L184.797 16.5469H186.43L188.938 22.7188ZM185.945 16.5469V25H184.062V16.5469H185.945ZM191.93 25V16.5469H193.82V25H191.93ZM200.695 23.3047V19.2734C200.695 18.9714 200.641 18.7109 200.531 18.4922C200.422 18.2734 200.255 18.1042 200.031 17.9844C199.812 17.8646 199.536 17.8047 199.203 17.8047C198.896 17.8047 198.63 17.8568 198.406 17.9609C198.182 18.0651 198.008 18.2057 197.883 18.3828C197.758 18.5599 197.695 18.7604 197.695 18.9844H195.82C195.82 18.651 195.901 18.3281 196.062 18.0156C196.224 17.7031 196.458 17.4245 196.766 17.1797C197.073 16.9349 197.44 16.7422 197.867 16.6016C198.294 16.4609 198.773 16.3906 199.305 16.3906C199.94 16.3906 200.503 16.4974 200.992 16.7109C201.487 16.9245 201.875 17.2474 202.156 17.6797C202.443 18.1068 202.586 18.6432 202.586 19.2891V23.0469C202.586 23.4323 202.612 23.7786 202.664 24.0859C202.721 24.388 202.802 24.651 202.906 24.875V25H200.977C200.888 24.7969 200.818 24.5391 200.766 24.2266C200.719 23.9089 200.695 23.6016 200.695 23.3047ZM200.969 19.8594L200.984 21.0234H199.633C199.284 21.0234 198.977 21.0573 198.711 21.125C198.445 21.1875 198.224 21.2812 198.047 21.4062C197.87 21.5312 197.737 21.6823 197.648 21.8594C197.56 22.0365 197.516 22.237 197.516 22.4609C197.516 22.6849 197.568 22.8906 197.672 23.0781C197.776 23.2604 197.927 23.4036 198.125 23.5078C198.328 23.612 198.573 23.6641 198.859 23.6641C199.245 23.6641 199.581 23.5859 199.867 23.4297C200.159 23.2682 200.388 23.0729 200.555 22.8438C200.721 22.6094 200.81 22.388 200.82 22.1797L201.43 23.0156C201.367 23.2292 201.26 23.4583 201.109 23.7031C200.958 23.9479 200.76 24.1823 200.516 24.4062C200.276 24.625 199.987 24.8047 199.648 24.9453C199.315 25.0859 198.93 25.1562 198.492 25.1562C197.94 25.1562 197.448 25.0469 197.016 24.8281C196.583 24.6042 196.245 24.3047 196 23.9297C195.755 23.5495 195.633 23.1198 195.633 22.6406C195.633 22.1927 195.716 21.7969 195.883 21.4531C196.055 21.1042 196.305 20.8125 196.633 20.5781C196.966 20.3438 197.372 20.1667 197.852 20.0469C198.331 19.9219 198.878 19.8594 199.492 19.8594H200.969ZM206.445 18.1719V28.25H204.562V16.5469H206.297L206.445 18.1719ZM211.953 20.6953V20.8594C211.953 21.474 211.88 22.0443 211.734 22.5703C211.594 23.0911 211.383 23.5469 211.102 23.9375C210.826 24.3229 210.484 24.6224 210.078 24.8359C209.672 25.0495 209.203 25.1562 208.672 25.1562C208.146 25.1562 207.685 25.0599 207.289 24.8672C206.898 24.6693 206.568 24.3906 206.297 24.0312C206.026 23.6719 205.807 23.25 205.641 22.7656C205.479 22.276 205.365 21.7396 205.297 21.1562V20.5234C205.365 19.9036 205.479 19.3411 205.641 18.8359C205.807 18.3307 206.026 17.8958 206.297 17.5312C206.568 17.1667 206.898 16.8854 207.289 16.6875C207.68 16.4896 208.135 16.3906 208.656 16.3906C209.188 16.3906 209.659 16.4948 210.07 16.7031C210.482 16.9062 210.828 17.1979 211.109 17.5781C211.391 17.9531 211.602 18.4062 211.742 18.9375C211.883 19.4635 211.953 20.0495 211.953 20.6953ZM210.07 20.8594V20.6953C210.07 20.3047 210.034 19.9427 209.961 19.6094C209.888 19.2708 209.773 18.974 209.617 18.7188C209.461 18.4635 209.26 18.2656 209.016 18.125C208.776 17.9792 208.487 17.9062 208.148 17.9062C207.815 17.9062 207.529 17.9635 207.289 18.0781C207.049 18.1875 206.849 18.3411 206.688 18.5391C206.526 18.737 206.401 18.9688 206.312 19.2344C206.224 19.4948 206.161 19.7786 206.125 20.0859V21.6016C206.188 21.9766 206.294 22.3203 206.445 22.6328C206.596 22.9453 206.81 23.1953 207.086 23.3828C207.367 23.5651 207.727 23.6562 208.164 23.6562C208.503 23.6562 208.792 23.5833 209.031 23.4375C209.271 23.2917 209.466 23.0911 209.617 22.8359C209.773 22.5755 209.888 22.276 209.961 21.9375C210.034 21.599 210.07 21.2396 210.07 20.8594ZM213.617 16.5469H215.5V23.5H218.18V16.5469H220.078V23.5H222.75V16.5469H224.633V25H213.617V16.5469ZM228.555 18.1719V28.25H226.672V16.5469H228.406L228.555 18.1719ZM234.062 20.6953V20.8594C234.062 21.474 233.99 22.0443 233.844 22.5703C233.703 23.0911 233.492 23.5469 233.211 23.9375C232.935 24.3229 232.594 24.6224 232.188 24.8359C231.781 25.0495 231.312 25.1562 230.781 25.1562C230.255 25.1562 229.794 25.0599 229.398 24.8672C229.008 24.6693 228.677 24.3906 228.406 24.0312C228.135 23.6719 227.917 23.25 227.75 22.7656C227.589 22.276 227.474 21.7396 227.406 21.1562V20.5234C227.474 19.9036 227.589 19.3411 227.75 18.8359C227.917 18.3307 228.135 17.8958 228.406 17.5312C228.677 17.1667 229.008 16.8854 229.398 16.6875C229.789 16.4896 230.245 16.3906 230.766 16.3906C231.297 16.3906 231.768 16.4948 232.18 16.7031C232.591 16.9062 232.938 17.1979 233.219 17.5781C233.5 17.9531 233.711 18.4062 233.852 18.9375C233.992 19.4635 234.062 20.0495 234.062 20.6953ZM232.18 20.8594V20.6953C232.18 20.3047 232.143 19.9427 232.07 19.6094C231.997 19.2708 231.883 18.974 231.727 18.7188C231.57 18.4635 231.37 18.2656 231.125 18.125C230.885 17.9792 230.596 17.9062 230.258 17.9062C229.924 17.9062 229.638 17.9635 229.398 18.0781C229.159 18.1875 228.958 18.3411 228.797 18.5391C228.635 18.737 228.51 18.9688 228.422 19.2344C228.333 19.4948 228.271 19.7786 228.234 20.0859V21.6016C228.297 21.9766 228.404 22.3203 228.555 22.6328C228.706 22.9453 228.919 23.1953 229.195 23.3828C229.477 23.5651 229.836 23.6562 230.273 23.6562C230.612 23.6562 230.901 23.5833 231.141 23.4375C231.38 23.2917 231.576 23.0911 231.727 22.8359C231.883 22.5755 231.997 22.276 232.07 21.9375C232.143 21.599 232.18 21.2396 232.18 20.8594ZM238.023 24.0781L240.32 16.5469H242.336L238.945 26.2891C238.867 26.4974 238.766 26.724 238.641 26.9688C238.516 27.2135 238.352 27.4453 238.148 27.6641C237.951 27.888 237.703 28.0677 237.406 28.2031C237.109 28.3438 236.75 28.4141 236.328 28.4141C236.161 28.4141 236 28.3984 235.844 28.3672C235.693 28.3411 235.549 28.3125 235.414 28.2812L235.406 26.8438C235.458 26.849 235.521 26.8542 235.594 26.8594C235.672 26.8646 235.734 26.8672 235.781 26.8672C236.094 26.8672 236.354 26.8281 236.562 26.75C236.771 26.6771 236.94 26.5573 237.07 26.3906C237.206 26.224 237.32 26 237.414 25.7188L238.023 24.0781ZM236.727 16.5469L238.734 22.875L239.07 24.8594L237.766 25.1953L234.695 16.5469H236.727ZM247.336 16.5469V25H245.445V16.5469H247.336ZM250.109 16.5469V18.0312H242.719V16.5469H250.109Z" fill="#3B83F1"/>
<rect x="0.5" y="0.5" width="342" height="39" rx="7.5" stroke="#3B83F1"/>
</g>
<defs>
<filter id="filter0_b_2_327" x="-4" y="-4" width="351" height="48" filterUnits="userSpaceOnUse" color-interpolation-filters="sRGB">
<feFlood flood-opacity="0" result="BackgroundImageFix"/>
<feGaussianBlur in="BackgroundImageFix" stdDeviation="2"/>
<feComposite in2="SourceAlpha" operator="in" result="effect1_backgroundBlur_2_327"/>
<feBlend mode="normal" in="SourceGraphic" in2="effect1_backgroundBlur_2_327" result="shape"/>
</filter>
</defs>
</svg>
