<svg width="95" height="16" viewBox="0 0 95 16" fill="none" xmlns="http://www.w3.org/2000/svg">
<rect width="95" height="16" rx="8" fill="#F1A038"/>
<path d="M8.80273 10.3555C9.01758 10.3555 9.21615 10.3115 9.39844 10.2236C9.58073 10.1357 9.73047 10.0153 9.84766 9.8623C9.96484 9.70605 10.0316 9.52865 10.0479 9.33008H10.9072C10.891 9.64258 10.7852 9.93392 10.5898 10.2041C10.3978 10.471 10.1455 10.6875 9.83301 10.8535C9.52051 11.0163 9.17708 11.0977 8.80273 11.0977C8.4056 11.0977 8.05892 11.0277 7.7627 10.8877C7.46973 10.7477 7.22559 10.5557 7.03027 10.3115C6.83822 10.0674 6.69336 9.78743 6.5957 9.47168C6.5013 9.15267 6.4541 8.81576 6.4541 8.46094V8.25586C6.4541 7.90104 6.5013 7.56576 6.5957 7.25C6.69336 6.93099 6.83822 6.64941 7.03027 6.40527C7.22559 6.16113 7.46973 5.96908 7.7627 5.8291C8.05892 5.68913 8.4056 5.61914 8.80273 5.61914C9.21615 5.61914 9.57747 5.70378 9.88672 5.87305C10.196 6.03906 10.4385 6.26693 10.6143 6.55664C10.7933 6.8431 10.891 7.16862 10.9072 7.5332H10.0479C10.0316 7.3151 9.96973 7.11816 9.8623 6.94238C9.75814 6.7666 9.61491 6.62663 9.43262 6.52246C9.25358 6.41504 9.04362 6.36133 8.80273 6.36133C8.52604 6.36133 8.29329 6.41667 8.10449 6.52734C7.91895 6.63477 7.77083 6.78125 7.66016 6.9668C7.55273 7.14909 7.47461 7.35254 7.42578 7.57715C7.38021 7.7985 7.35742 8.02474 7.35742 8.25586V8.46094C7.35742 8.69206 7.38021 8.91992 7.42578 9.14453C7.47135 9.36914 7.54785 9.57259 7.65527 9.75488C7.76595 9.93717 7.91406 10.0837 8.09961 10.1943C8.28841 10.3018 8.52279 10.3555 8.80273 10.3555ZM12.8262 6.73242V13.0312H11.918V5.7168H12.748L12.8262 6.73242ZM16.3857 8.31445V8.41699C16.3857 8.80111 16.3402 9.15755 16.249 9.48633C16.1579 9.81185 16.0244 10.0951 15.8486 10.3359C15.6761 10.5768 15.4629 10.764 15.209 10.8975C14.9551 11.0309 14.6637 11.0977 14.335 11.0977C13.9997 11.0977 13.7035 11.0423 13.4463 10.9316C13.1891 10.821 12.971 10.6598 12.792 10.4482C12.613 10.2367 12.4697 9.98275 12.3623 9.68652C12.2581 9.3903 12.1865 9.05664 12.1475 8.68555V8.13867C12.1865 7.74805 12.2598 7.39811 12.3672 7.08887C12.4746 6.77962 12.6162 6.51595 12.792 6.29785C12.971 6.0765 13.1875 5.90885 13.4414 5.79492C13.6953 5.67773 13.9883 5.61914 14.3203 5.61914C14.6523 5.61914 14.9469 5.68424 15.2041 5.81445C15.4613 5.94141 15.6777 6.1237 15.8535 6.36133C16.0293 6.59896 16.1611 6.88379 16.249 7.21582C16.3402 7.5446 16.3857 7.91081 16.3857 8.31445ZM15.4775 8.41699V8.31445C15.4775 8.05078 15.4499 7.80339 15.3945 7.57227C15.3392 7.33789 15.2529 7.13281 15.1357 6.95703C15.0218 6.77799 14.8753 6.63802 14.6963 6.53711C14.5173 6.43294 14.304 6.38086 14.0566 6.38086C13.8288 6.38086 13.6302 6.41992 13.4609 6.49805C13.2949 6.57617 13.1533 6.68197 13.0361 6.81543C12.9189 6.94564 12.8229 7.09538 12.748 7.26465C12.6764 7.43066 12.6227 7.60319 12.5869 7.78223V9.04688C12.652 9.27474 12.7432 9.48958 12.8604 9.69141C12.9775 9.88997 13.1338 10.0511 13.3291 10.1748C13.5244 10.2952 13.7702 10.3555 14.0664 10.3555C14.3105 10.3555 14.5205 10.305 14.6963 10.2041C14.8753 10.0999 15.0218 9.95833 15.1357 9.7793C15.2529 9.60026 15.3392 9.39518 15.3945 9.16406C15.4499 8.92969 15.4775 8.68066 15.4775 8.41699ZM19.7305 11.0977C19.3626 11.0977 19.029 11.0358 18.7295 10.9121C18.4333 10.7852 18.1777 10.6077 17.9629 10.3799C17.7513 10.152 17.5885 9.88184 17.4746 9.56934C17.3607 9.25684 17.3037 8.91504 17.3037 8.54395V8.33887C17.3037 7.90918 17.3672 7.52669 17.4941 7.19141C17.6211 6.85286 17.7936 6.56641 18.0117 6.33203C18.2298 6.09766 18.4772 5.92025 18.7539 5.7998C19.0306 5.67936 19.3171 5.61914 19.6133 5.61914C19.9909 5.61914 20.3164 5.68424 20.5898 5.81445C20.8665 5.94466 21.0928 6.12695 21.2686 6.36133C21.4443 6.59245 21.5745 6.86589 21.6592 7.18164C21.7438 7.49414 21.7861 7.83594 21.7861 8.20703V8.6123H17.8408V7.875H20.8828V7.80664C20.8698 7.57227 20.821 7.3444 20.7363 7.12305C20.6549 6.90169 20.5247 6.7194 20.3457 6.57617C20.1667 6.43294 19.9225 6.36133 19.6133 6.36133C19.4082 6.36133 19.2194 6.40527 19.0469 6.49316C18.8743 6.5778 18.7262 6.70475 18.6025 6.87402C18.4788 7.04329 18.3828 7.25 18.3145 7.49414C18.2461 7.73828 18.2119 8.01986 18.2119 8.33887V8.54395C18.2119 8.7946 18.2461 9.0306 18.3145 9.25195C18.3861 9.47005 18.4886 9.66211 18.6221 9.82812C18.7588 9.99414 18.9232 10.1243 19.1152 10.2188C19.3105 10.3132 19.5319 10.3604 19.7793 10.3604C20.0983 10.3604 20.3685 10.2952 20.5898 10.165C20.8112 10.0348 21.0049 9.86068 21.1709 9.64258L21.7178 10.0771C21.6038 10.2497 21.459 10.4141 21.2832 10.5703C21.1074 10.7266 20.891 10.8535 20.6338 10.9512C20.3799 11.0488 20.0788 11.0977 19.7305 11.0977ZM23.793 5.7168H24.6963L24.6182 7.69434C24.5986 8.19564 24.5417 8.62858 24.4473 8.99316C24.3529 9.35775 24.2324 9.66862 24.0859 9.92578C23.9395 10.1797 23.7751 10.3929 23.5928 10.5654C23.4137 10.738 23.2282 10.8828 23.0361 11H22.5869L22.6113 10.2627L22.7969 10.2578C22.9043 10.1309 23.0085 10.0007 23.1094 9.86719C23.2103 9.73047 23.3031 9.56934 23.3877 9.38379C23.4723 9.19499 23.5423 8.96549 23.5977 8.69531C23.6562 8.42188 23.6937 8.08822 23.71 7.69434L23.793 5.7168ZM24.0176 5.7168H27.1963V11H26.293V6.55176H24.0176V5.7168ZM22.3818 10.2578H27.875V12.5576H26.9717V11H23.2852V12.5576H22.377L22.3818 10.2578ZM32.46 8.00684V8.73926H29.667V8.00684H32.46ZM29.8574 5.7168V11H28.9541V5.7168H29.8574ZM33.1924 5.7168V11H32.2842V5.7168H33.1924ZM35.7168 8.48047H36.6934L35.165 11H34.1885L35.7168 8.48047ZM36.4736 5.7168H38.6807V11H37.7773V6.44922H36.4736C36.2165 6.44922 36.0065 6.49316 35.8438 6.58105C35.681 6.66569 35.5622 6.77637 35.4873 6.91309C35.4124 7.0498 35.375 7.19141 35.375 7.33789C35.375 7.48112 35.4092 7.61947 35.4775 7.75293C35.5459 7.88314 35.6533 7.99056 35.7998 8.0752C35.9463 8.15983 36.1351 8.20215 36.3662 8.20215H38.0215V8.94434H36.3662C36.0635 8.94434 35.7949 8.90365 35.5605 8.82227C35.3262 8.74089 35.1276 8.62858 34.9648 8.48535C34.8021 8.33887 34.6784 8.16797 34.5938 7.97266C34.5091 7.77409 34.4668 7.55924 34.4668 7.32812C34.4668 7.09701 34.5107 6.88379 34.5986 6.68848C34.6898 6.49316 34.82 6.32227 34.9893 6.17578C35.1618 6.0293 35.3717 5.91699 35.6191 5.83887C35.8698 5.75749 36.1546 5.7168 36.4736 5.7168ZM41.2051 8.48047H42.1816L40.6533 11H39.6768L41.2051 8.48047ZM41.9619 5.7168H44.1689V11H43.2656V6.44922H41.9619C41.7048 6.44922 41.4948 6.49316 41.332 6.58105C41.1693 6.66569 41.0505 6.77637 40.9756 6.91309C40.9007 7.0498 40.8633 7.19141 40.8633 7.33789C40.8633 7.48112 40.8975 7.61947 40.9658 7.75293C41.0342 7.88314 41.1416 7.99056 41.2881 8.0752C41.4346 8.15983 41.6234 8.20215 41.8545 8.20215H43.5098V8.94434H41.8545C41.5518 8.94434 41.2832 8.90365 41.0488 8.82227C40.8145 8.74089 40.6159 8.62858 40.4531 8.48535C40.2904 8.33887 40.1667 8.16797 40.082 7.97266C39.9974 7.77409 39.9551 7.55924 39.9551 7.32812C39.9551 7.09701 39.999 6.88379 40.0869 6.68848C40.1781 6.49316 40.3083 6.32227 40.4775 6.17578C40.6501 6.0293 40.86 5.91699 41.1074 5.83887C41.3581 5.75749 41.6429 5.7168 41.9619 5.7168ZM50.0771 8.47559H49.1055V7.91895H50.0039C50.2546 7.91895 50.4531 7.88802 50.5996 7.82617C50.7461 7.76107 50.8503 7.67155 50.9121 7.55762C50.974 7.44368 51.0049 7.31022 51.0049 7.15723C51.0049 7.02051 50.9691 6.89193 50.8975 6.77148C50.8291 6.64779 50.7184 6.5485 50.5654 6.47363C50.4124 6.39551 50.2074 6.35645 49.9502 6.35645C49.7419 6.35645 49.5531 6.39388 49.3838 6.46875C49.2145 6.54036 49.0794 6.63965 48.9785 6.7666C48.8809 6.8903 48.832 7.03027 48.832 7.18652H47.9287C47.9287 6.86426 48.0199 6.58757 48.2021 6.35645C48.3877 6.12207 48.6335 5.94141 48.9395 5.81445C49.2487 5.6875 49.5856 5.62402 49.9502 5.62402C50.2562 5.62402 50.5296 5.6582 50.7705 5.72656C51.0146 5.79167 51.2214 5.88932 51.3906 6.01953C51.5599 6.14648 51.6885 6.30599 51.7764 6.49805C51.8675 6.68685 51.9131 6.90658 51.9131 7.15723C51.9131 7.33626 51.8708 7.50553 51.7861 7.66504C51.7015 7.82454 51.5794 7.96615 51.4199 8.08984C51.2604 8.21029 51.0667 8.30469 50.8389 8.37305C50.6143 8.44141 50.3604 8.47559 50.0771 8.47559ZM49.1055 8.13379H50.0771C50.3929 8.13379 50.6712 8.16471 50.9121 8.22656C51.153 8.28516 51.3548 8.37305 51.5176 8.49023C51.6803 8.60742 51.8024 8.75228 51.8838 8.9248C51.9684 9.09408 52.0107 9.28939 52.0107 9.51074C52.0107 9.75814 51.9603 9.98112 51.8594 10.1797C51.7617 10.375 51.6217 10.541 51.4395 10.6777C51.2572 10.8145 51.0391 10.9186 50.7852 10.9902C50.5345 11.0618 50.2562 11.0977 49.9502 11.0977C49.6084 11.0977 49.2764 11.0391 48.9541 10.9219C48.6318 10.8047 48.3665 10.624 48.1582 10.3799C47.9499 10.1325 47.8457 9.81836 47.8457 9.4375H48.749C48.749 9.59701 48.7995 9.74837 48.9004 9.8916C49.0013 10.0348 49.1413 10.1504 49.3203 10.2383C49.5026 10.3262 49.7126 10.3701 49.9502 10.3701C50.2041 10.3701 50.4157 10.3311 50.585 10.2529C50.7542 10.1748 50.8812 10.0706 50.9658 9.94043C51.0537 9.81022 51.0977 9.66862 51.0977 9.51562C51.0977 9.31706 51.0586 9.15755 50.9805 9.03711C50.9023 8.91667 50.7819 8.82878 50.6191 8.77344C50.4596 8.71484 50.2546 8.68555 50.0039 8.68555H49.1055V8.13379ZM56.2979 10.0967V7.37695C56.2979 7.16862 56.2555 6.98796 56.1709 6.83496C56.0895 6.67871 55.9658 6.55827 55.7998 6.47363C55.6338 6.389 55.4287 6.34668 55.1846 6.34668C54.9567 6.34668 54.7565 6.38574 54.584 6.46387C54.4147 6.54199 54.2812 6.64453 54.1836 6.77148C54.0892 6.89844 54.042 7.03516 54.042 7.18164H53.1387C53.1387 6.99284 53.1875 6.80566 53.2852 6.62012C53.3828 6.43457 53.5228 6.26693 53.7051 6.11719C53.8906 5.96419 54.112 5.84375 54.3691 5.75586C54.6296 5.66471 54.9193 5.61914 55.2383 5.61914C55.6224 5.61914 55.9609 5.68424 56.2539 5.81445C56.5501 5.94466 56.7812 6.1416 56.9473 6.40527C57.1165 6.66569 57.2012 6.99284 57.2012 7.38672V9.84766C57.2012 10.0234 57.2158 10.2106 57.2451 10.4092C57.2777 10.6077 57.3249 10.7786 57.3867 10.9219V11H56.4443C56.3988 10.8958 56.363 10.7575 56.3369 10.585C56.3109 10.4092 56.2979 10.2464 56.2979 10.0967ZM56.4541 7.79688L56.4639 8.43164H55.5508C55.2936 8.43164 55.0641 8.4528 54.8623 8.49512C54.6605 8.53418 54.4912 8.5944 54.3545 8.67578C54.2178 8.75716 54.1136 8.8597 54.042 8.9834C53.9704 9.10384 53.9346 9.24544 53.9346 9.4082C53.9346 9.57422 53.972 9.72559 54.0469 9.8623C54.1217 9.99902 54.234 10.1081 54.3838 10.1895C54.5368 10.2676 54.724 10.3066 54.9453 10.3066C55.222 10.3066 55.4661 10.248 55.6777 10.1309C55.8893 10.0137 56.057 9.87044 56.1807 9.70117C56.3076 9.5319 56.376 9.36751 56.3857 9.20801L56.7715 9.64258C56.7487 9.7793 56.6868 9.93066 56.5859 10.0967C56.485 10.2627 56.3499 10.4222 56.1807 10.5752C56.0146 10.7249 55.8161 10.8503 55.585 10.9512C55.3571 11.0488 55.0999 11.0977 54.8135 11.0977C54.4554 11.0977 54.1413 11.0277 53.8711 10.8877C53.6042 10.7477 53.3958 10.5605 53.2461 10.3262C53.0996 10.0885 53.0264 9.82324 53.0264 9.53027C53.0264 9.24707 53.0817 8.99805 53.1924 8.7832C53.3031 8.5651 53.4626 8.38444 53.6709 8.24121C53.8792 8.09473 54.1299 7.98405 54.4229 7.90918C54.7158 7.83431 55.043 7.79688 55.4043 7.79688H56.4541ZM62.0352 5.7168V6.46387H59.5938V11H58.6904V5.7168H62.0352ZM63.7246 6.73242V13.0312H62.8164V5.7168H63.6465L63.7246 6.73242ZM67.2842 8.31445V8.41699C67.2842 8.80111 67.2386 9.15755 67.1475 9.48633C67.0563 9.81185 66.9229 10.0951 66.7471 10.3359C66.5745 10.5768 66.3613 10.764 66.1074 10.8975C65.8535 11.0309 65.5622 11.0977 65.2334 11.0977C64.8981 11.0977 64.6019 11.0423 64.3447 10.9316C64.0876 10.821 63.8695 10.6598 63.6904 10.4482C63.5114 10.2367 63.3682 9.98275 63.2607 9.68652C63.1566 9.3903 63.085 9.05664 63.0459 8.68555V8.13867C63.085 7.74805 63.1582 7.39811 63.2656 7.08887C63.373 6.77962 63.5146 6.51595 63.6904 6.29785C63.8695 6.0765 64.0859 5.90885 64.3398 5.79492C64.5938 5.67773 64.8867 5.61914 65.2188 5.61914C65.5508 5.61914 65.8454 5.68424 66.1025 5.81445C66.3597 5.94141 66.5762 6.1237 66.752 6.36133C66.9277 6.59896 67.0596 6.88379 67.1475 7.21582C67.2386 7.5446 67.2842 7.91081 67.2842 8.31445ZM66.376 8.41699V8.31445C66.376 8.05078 66.3483 7.80339 66.293 7.57227C66.2376 7.33789 66.1514 7.13281 66.0342 6.95703C65.9202 6.77799 65.7738 6.63802 65.5947 6.53711C65.4157 6.43294 65.2025 6.38086 64.9551 6.38086C64.7272 6.38086 64.5286 6.41992 64.3594 6.49805C64.1934 6.57617 64.0518 6.68197 63.9346 6.81543C63.8174 6.94564 63.7214 7.09538 63.6465 7.26465C63.5749 7.43066 63.5212 7.60319 63.4854 7.78223V9.04688C63.5505 9.27474 63.6416 9.48958 63.7588 9.69141C63.876 9.88997 64.0322 10.0511 64.2275 10.1748C64.4229 10.2952 64.6686 10.3555 64.9648 10.3555C65.209 10.3555 65.4189 10.305 65.5947 10.2041C65.7738 10.0999 65.9202 9.95833 66.0342 9.7793C66.1514 9.60026 66.2376 9.39518 66.293 9.16406C66.3483 8.92969 66.376 8.68066 66.376 8.41699ZM69.8623 10.4531L71.332 5.7168H72.2988L70.1797 11.8154C70.1309 11.9456 70.0658 12.0856 69.9844 12.2354C69.9062 12.3883 69.8053 12.5332 69.6816 12.6699C69.5579 12.8066 69.4082 12.9173 69.2324 13.002C69.0599 13.0898 68.8532 13.1338 68.6123 13.1338C68.5407 13.1338 68.4495 13.124 68.3389 13.1045C68.2282 13.085 68.1501 13.0687 68.1045 13.0557L68.0996 12.3232C68.1257 12.3265 68.1663 12.3298 68.2217 12.333C68.2803 12.3395 68.321 12.3428 68.3438 12.3428C68.5488 12.3428 68.723 12.3151 68.8662 12.2598C69.0094 12.2077 69.1299 12.1182 69.2275 11.9912C69.3285 11.8675 69.4147 11.6966 69.4863 11.4785L69.8623 10.4531ZM68.7832 5.7168L70.1553 9.81836L70.3896 10.7705L69.7402 11.1025L67.7969 5.7168H68.7832ZM75.0869 8.47559H74.1152V7.91895H75.0137C75.2643 7.91895 75.4629 7.88802 75.6094 7.82617C75.7559 7.76107 75.86 7.67155 75.9219 7.55762C75.9837 7.44368 76.0146 7.31022 76.0146 7.15723C76.0146 7.02051 75.9788 6.89193 75.9072 6.77148C75.8389 6.64779 75.7282 6.5485 75.5752 6.47363C75.4222 6.39551 75.2171 6.35645 74.96 6.35645C74.7516 6.35645 74.5628 6.39388 74.3936 6.46875C74.2243 6.54036 74.0892 6.63965 73.9883 6.7666C73.8906 6.8903 73.8418 7.03027 73.8418 7.18652H72.9385C72.9385 6.86426 73.0296 6.58757 73.2119 6.35645C73.3975 6.12207 73.6432 5.94141 73.9492 5.81445C74.2585 5.6875 74.5954 5.62402 74.96 5.62402C75.266 5.62402 75.5394 5.6582 75.7803 5.72656C76.0244 5.79167 76.2311 5.88932 76.4004 6.01953C76.5697 6.14648 76.6982 6.30599 76.7861 6.49805C76.8773 6.68685 76.9229 6.90658 76.9229 7.15723C76.9229 7.33626 76.8805 7.50553 76.7959 7.66504C76.7113 7.82454 76.5892 7.96615 76.4297 8.08984C76.2702 8.21029 76.0765 8.30469 75.8486 8.37305C75.624 8.44141 75.3701 8.47559 75.0869 8.47559ZM74.1152 8.13379H75.0869C75.4027 8.13379 75.681 8.16471 75.9219 8.22656C76.1628 8.28516 76.3646 8.37305 76.5273 8.49023C76.6901 8.60742 76.8122 8.75228 76.8936 8.9248C76.9782 9.09408 77.0205 9.28939 77.0205 9.51074C77.0205 9.75814 76.9701 9.98112 76.8691 10.1797C76.7715 10.375 76.6315 10.541 76.4492 10.6777C76.2669 10.8145 76.0488 10.9186 75.7949 10.9902C75.5443 11.0618 75.266 11.0977 74.96 11.0977C74.6182 11.0977 74.2861 11.0391 73.9639 10.9219C73.6416 10.8047 73.3763 10.624 73.168 10.3799C72.9596 10.1325 72.8555 9.81836 72.8555 9.4375H73.7588C73.7588 9.59701 73.8092 9.74837 73.9102 9.8916C74.0111 10.0348 74.151 10.1504 74.3301 10.2383C74.5124 10.3262 74.7223 10.3701 74.96 10.3701C75.2139 10.3701 75.4255 10.3311 75.5947 10.2529C75.764 10.1748 75.891 10.0706 75.9756 9.94043C76.0635 9.81022 76.1074 9.66862 76.1074 9.51562C76.1074 9.31706 76.0684 9.15755 75.9902 9.03711C75.9121 8.91667 75.7917 8.82878 75.6289 8.77344C75.4694 8.71484 75.2643 8.68555 75.0137 8.68555H74.1152V8.13379ZM79.1738 5.7168V11H78.2705V5.7168H79.1738ZM82.6406 5.7168L80.1357 8.74414H78.8711L78.7344 7.95312H79.7695L81.542 5.7168H82.6406ZM81.6689 11L79.7256 8.60742L80.3066 7.95312L82.8164 11H81.6689ZM86.7178 10.0967V7.37695C86.7178 7.16862 86.6755 6.98796 86.5908 6.83496C86.5094 6.67871 86.3857 6.55827 86.2197 6.47363C86.0537 6.389 85.8486 6.34668 85.6045 6.34668C85.3766 6.34668 85.1764 6.38574 85.0039 6.46387C84.8346 6.54199 84.7012 6.64453 84.6035 6.77148C84.5091 6.89844 84.4619 7.03516 84.4619 7.18164H83.5586C83.5586 6.99284 83.6074 6.80566 83.7051 6.62012C83.8027 6.43457 83.9427 6.26693 84.125 6.11719C84.3105 5.96419 84.5319 5.84375 84.7891 5.75586C85.0495 5.66471 85.3392 5.61914 85.6582 5.61914C86.0423 5.61914 86.3809 5.68424 86.6738 5.81445C86.9701 5.94466 87.2012 6.1416 87.3672 6.40527C87.5365 6.66569 87.6211 6.99284 87.6211 7.38672V9.84766C87.6211 10.0234 87.6357 10.2106 87.665 10.4092C87.6976 10.6077 87.7448 10.7786 87.8066 10.9219V11H86.8643C86.8187 10.8958 86.7829 10.7575 86.7568 10.585C86.7308 10.4092 86.7178 10.2464 86.7178 10.0967ZM86.874 7.79688L86.8838 8.43164H85.9707C85.7135 8.43164 85.484 8.4528 85.2822 8.49512C85.0804 8.53418 84.9111 8.5944 84.7744 8.67578C84.6377 8.75716 84.5335 8.8597 84.4619 8.9834C84.3903 9.10384 84.3545 9.24544 84.3545 9.4082C84.3545 9.57422 84.3919 9.72559 84.4668 9.8623C84.5417 9.99902 84.654 10.1081 84.8037 10.1895C84.9567 10.2676 85.1439 10.3066 85.3652 10.3066C85.6419 10.3066 85.8861 10.248 86.0977 10.1309C86.3092 10.0137 86.4769 9.87044 86.6006 9.70117C86.7275 9.5319 86.7959 9.36751 86.8057 9.20801L87.1914 9.64258C87.1686 9.7793 87.1068 9.93066 87.0059 10.0967C86.9049 10.2627 86.7699 10.4222 86.6006 10.5752C86.4346 10.7249 86.236 10.8503 86.0049 10.9512C85.777 11.0488 85.5199 11.0977 85.2334 11.0977C84.8753 11.0977 84.5612 11.0277 84.291 10.8877C84.0241 10.7477 83.8158 10.5605 83.666 10.3262C83.5195 10.0885 83.4463 9.82324 83.4463 9.53027C83.4463 9.24707 83.5016 8.99805 83.6123 8.7832C83.723 8.5651 83.8825 8.38444 84.0908 8.24121C84.2992 8.09473 84.5498 7.98405 84.8428 7.90918C85.1357 7.83431 85.4629 7.79688 85.8242 7.79688H86.874Z" fill="#F3F7FA"/>
</svg>
