<svg width="97" height="16" viewBox="0 0 97 16" fill="none" xmlns="http://www.w3.org/2000/svg">
<rect width="97" height="16" rx="8" fill="#CA181F"/>
<path d="M9.16895 8.67578H7.43555L7.42578 7.95312H8.8418C9.12174 7.95312 9.35449 7.92546 9.54004 7.87012C9.72884 7.81478 9.87044 7.73177 9.96484 7.62109C10.0592 7.51042 10.1064 7.3737 10.1064 7.21094C10.1064 7.08398 10.0788 6.97331 10.0234 6.87891C9.97135 6.78125 9.8916 6.7015 9.78418 6.63965C9.67676 6.57454 9.54329 6.52734 9.38379 6.49805C9.22754 6.46549 9.04362 6.44922 8.83203 6.44922H7.6748V11H6.77148V5.7168H8.83203C9.16732 5.7168 9.46842 5.74609 9.73535 5.80469C10.0055 5.86328 10.235 5.9528 10.4238 6.07324C10.6159 6.19043 10.7624 6.34017 10.8633 6.52246C10.9642 6.70475 11.0146 6.9196 11.0146 7.16699C11.0146 7.3265 10.9821 7.47786 10.917 7.62109C10.8519 7.76432 10.7559 7.89128 10.6289 8.00195C10.502 8.11263 10.3457 8.20378 10.1602 8.27539C9.97461 8.34375 9.76139 8.3877 9.52051 8.40723L9.16895 8.67578ZM9.16895 11H7.1084L7.55762 10.2676H9.16895C9.4196 10.2676 9.62793 10.2367 9.79395 10.1748C9.95996 10.1097 10.0837 10.0186 10.165 9.90137C10.2497 9.78092 10.292 9.6377 10.292 9.47168C10.292 9.30566 10.2497 9.16406 10.165 9.04688C10.0837 8.92643 9.95996 8.83529 9.79395 8.77344C9.62793 8.70833 9.4196 8.67578 9.16895 8.67578H7.79688L7.80664 7.95312H9.52051L9.84766 8.22656C10.1374 8.24935 10.3831 8.32096 10.585 8.44141C10.7868 8.56185 10.9398 8.71484 11.0439 8.90039C11.1481 9.08268 11.2002 9.28125 11.2002 9.49609C11.2002 9.74349 11.153 9.96159 11.0586 10.1504C10.9674 10.3392 10.834 10.4971 10.6582 10.624C10.4824 10.7477 10.2692 10.8421 10.0186 10.9072C9.7679 10.9691 9.4847 11 9.16895 11ZM13.1533 7.5332H14.7402C15.1667 7.5332 15.5264 7.60807 15.8193 7.75781C16.1123 7.9043 16.3337 8.10775 16.4834 8.36816C16.6364 8.62533 16.7129 8.91829 16.7129 9.24707C16.7129 9.49121 16.6706 9.7207 16.5859 9.93555C16.5013 10.1471 16.3743 10.3327 16.2051 10.4922C16.0391 10.6517 15.8324 10.777 15.585 10.8682C15.3408 10.9561 15.0592 11 14.7402 11H12.4941V5.7168H13.3975V10.2578H14.7402C15.0007 10.2578 15.209 10.2106 15.3652 10.1162C15.5215 10.0218 15.6338 9.89974 15.7021 9.75C15.7705 9.60026 15.8047 9.44401 15.8047 9.28125C15.8047 9.12174 15.7705 8.96549 15.7021 8.8125C15.6338 8.65951 15.5215 8.53255 15.3652 8.43164C15.209 8.32747 15.0007 8.27539 14.7402 8.27539H13.1533V7.5332ZM18.5928 5.7168V11H17.6895V5.7168H18.5928ZM22.2891 10.3555C22.5039 10.3555 22.7025 10.3115 22.8848 10.2236C23.0671 10.1357 23.2168 10.0153 23.334 9.8623C23.4512 9.70605 23.5179 9.52865 23.5342 9.33008H24.3936C24.3773 9.64258 24.2715 9.93392 24.0762 10.2041C23.8841 10.471 23.6318 10.6875 23.3193 10.8535C23.0068 11.0163 22.6634 11.0977 22.2891 11.0977C21.8919 11.0977 21.5452 11.0277 21.249 10.8877C20.9561 10.7477 20.7119 10.5557 20.5166 10.3115C20.3245 10.0674 20.1797 9.78743 20.082 9.47168C19.9876 9.15267 19.9404 8.81576 19.9404 8.46094V8.25586C19.9404 7.90104 19.9876 7.56576 20.082 7.25C20.1797 6.93099 20.3245 6.64941 20.5166 6.40527C20.7119 6.16113 20.9561 5.96908 21.249 5.8291C21.5452 5.68913 21.8919 5.61914 22.2891 5.61914C22.7025 5.61914 23.0638 5.70378 23.373 5.87305C23.6823 6.03906 23.9248 6.26693 24.1006 6.55664C24.2796 6.8431 24.3773 7.16862 24.3936 7.5332H23.5342C23.5179 7.3151 23.4561 7.11816 23.3486 6.94238C23.2445 6.7666 23.1012 6.62663 22.9189 6.52246C22.7399 6.41504 22.5299 6.36133 22.2891 6.36133C22.0124 6.36133 21.7796 6.41667 21.5908 6.52734C21.4053 6.63477 21.2572 6.78125 21.1465 6.9668C21.0391 7.14909 20.9609 7.35254 20.9121 7.57715C20.8665 7.7985 20.8438 8.02474 20.8438 8.25586V8.46094C20.8438 8.69206 20.8665 8.91992 20.9121 9.14453C20.9577 9.36914 21.0342 9.57259 21.1416 9.75488C21.2523 9.93717 21.4004 10.0837 21.5859 10.1943C21.7747 10.3018 22.0091 10.3555 22.2891 10.3555ZM25.1699 8.41699V8.30469C25.1699 7.92383 25.2253 7.57064 25.3359 7.24512C25.4466 6.91634 25.6061 6.63151 25.8145 6.39062C26.0228 6.14648 26.2751 5.95768 26.5713 5.82422C26.8675 5.6875 27.1995 5.61914 27.5674 5.61914C27.9385 5.61914 28.2721 5.6875 28.5684 5.82422C28.8678 5.95768 29.1217 6.14648 29.3301 6.39062C29.5417 6.63151 29.7028 6.91634 29.8135 7.24512C29.9242 7.57064 29.9795 7.92383 29.9795 8.30469V8.41699C29.9795 8.79785 29.9242 9.15104 29.8135 9.47656C29.7028 9.80208 29.5417 10.0869 29.3301 10.3311C29.1217 10.5719 28.8695 10.7607 28.5732 10.8975C28.2803 11.0309 27.9482 11.0977 27.5771 11.0977C27.2061 11.0977 26.8724 11.0309 26.5762 10.8975C26.2799 10.7607 26.026 10.5719 25.8145 10.3311C25.6061 10.0869 25.4466 9.80208 25.3359 9.47656C25.2253 9.15104 25.1699 8.79785 25.1699 8.41699ZM26.0732 8.30469V8.41699C26.0732 8.68066 26.1042 8.92969 26.166 9.16406C26.2279 9.39518 26.3206 9.60026 26.4443 9.7793C26.5713 9.95833 26.7292 10.0999 26.918 10.2041C27.1068 10.305 27.3265 10.3555 27.5771 10.3555C27.8245 10.3555 28.041 10.305 28.2266 10.2041C28.4154 10.0999 28.5716 9.95833 28.6953 9.7793C28.819 9.60026 28.9118 9.39518 28.9736 9.16406C29.0387 8.92969 29.0713 8.68066 29.0713 8.41699V8.30469C29.0713 8.04427 29.0387 7.7985 28.9736 7.56738C28.9118 7.33301 28.8174 7.1263 28.6904 6.94727C28.5667 6.76497 28.4105 6.62174 28.2217 6.51758C28.0361 6.41341 27.818 6.36133 27.5674 6.36133C27.32 6.36133 27.1019 6.41341 26.9131 6.51758C26.7275 6.62174 26.5713 6.76497 26.4443 6.94727C26.3206 7.1263 26.2279 7.33301 26.166 7.56738C26.1042 7.7985 26.0732 8.04427 26.0732 8.30469ZM32.0938 5.7168V11H31.1904V5.7168H32.0938ZM35.5605 5.7168L33.0557 8.74414H31.791L31.6543 7.95312H32.6895L34.4619 5.7168H35.5605ZM34.5889 11L32.6455 8.60742L33.2266 7.95312L35.7363 11H34.5889ZM39.6377 10.0967V7.37695C39.6377 7.16862 39.5954 6.98796 39.5107 6.83496C39.4294 6.67871 39.3057 6.55827 39.1396 6.47363C38.9736 6.389 38.7686 6.34668 38.5244 6.34668C38.2965 6.34668 38.0964 6.38574 37.9238 6.46387C37.7546 6.54199 37.6211 6.64453 37.5234 6.77148C37.429 6.89844 37.3818 7.03516 37.3818 7.18164H36.4785C36.4785 6.99284 36.5273 6.80566 36.625 6.62012C36.7227 6.43457 36.8626 6.26693 37.0449 6.11719C37.2305 5.96419 37.4518 5.84375 37.709 5.75586C37.9694 5.66471 38.2591 5.61914 38.5781 5.61914C38.9622 5.61914 39.3008 5.68424 39.5938 5.81445C39.89 5.94466 40.1211 6.1416 40.2871 6.40527C40.4564 6.66569 40.541 6.99284 40.541 7.38672V9.84766C40.541 10.0234 40.5557 10.2106 40.585 10.4092C40.6175 10.6077 40.6647 10.7786 40.7266 10.9219V11H39.7842C39.7386 10.8958 39.7028 10.7575 39.6768 10.585C39.6507 10.4092 39.6377 10.2464 39.6377 10.0967ZM39.7939 7.79688L39.8037 8.43164H38.8906C38.6335 8.43164 38.404 8.4528 38.2021 8.49512C38.0003 8.53418 37.8311 8.5944 37.6943 8.67578C37.5576 8.75716 37.4535 8.8597 37.3818 8.9834C37.3102 9.10384 37.2744 9.24544 37.2744 9.4082C37.2744 9.57422 37.3118 9.72559 37.3867 9.8623C37.4616 9.99902 37.5739 10.1081 37.7236 10.1895C37.8766 10.2676 38.0638 10.3066 38.2852 10.3066C38.5618 10.3066 38.806 10.248 39.0176 10.1309C39.2292 10.0137 39.3968 9.87044 39.5205 9.70117C39.6475 9.5319 39.7158 9.36751 39.7256 9.20801L40.1113 9.64258C40.0885 9.7793 40.0267 9.93066 39.9258 10.0967C39.8249 10.2627 39.6898 10.4222 39.5205 10.5752C39.3545 10.7249 39.1559 10.8503 38.9248 10.9512C38.6969 11.0488 38.4398 11.0977 38.1533 11.0977C37.7952 11.0977 37.4811 11.0277 37.2109 10.8877C36.944 10.7477 36.7357 10.5605 36.5859 10.3262C36.4395 10.0885 36.3662 9.82324 36.3662 9.53027C36.3662 9.24707 36.4215 8.99805 36.5322 8.7832C36.6429 8.5651 36.8024 8.38444 37.0107 8.24121C37.2191 8.09473 37.4697 7.98405 37.7627 7.90918C38.0557 7.83431 38.3828 7.79688 38.7441 7.79688H39.7939ZM43.0312 8.48047H44.0078L42.4795 11H41.5029L43.0312 8.48047ZM43.7881 5.7168H45.9951V11H45.0918V6.44922H43.7881C43.5309 6.44922 43.321 6.49316 43.1582 6.58105C42.9954 6.66569 42.8766 6.77637 42.8018 6.91309C42.7269 7.0498 42.6895 7.19141 42.6895 7.33789C42.6895 7.48112 42.7236 7.61947 42.792 7.75293C42.8604 7.88314 42.9678 7.99056 43.1143 8.0752C43.2607 8.15983 43.4495 8.20215 43.6807 8.20215H45.3359V8.94434H43.6807C43.3779 8.94434 43.1094 8.90365 42.875 8.82227C42.6406 8.74089 42.4421 8.62858 42.2793 8.48535C42.1165 8.33887 41.9928 8.16797 41.9082 7.97266C41.8236 7.77409 41.7812 7.55924 41.7812 7.32812C41.7812 7.09701 41.8252 6.88379 41.9131 6.68848C42.0042 6.49316 42.1344 6.32227 42.3037 6.17578C42.4762 6.0293 42.6862 5.91699 42.9336 5.83887C43.1842 5.75749 43.4691 5.7168 43.7881 5.7168ZM51.9033 8.47559H50.9316V7.91895H51.8301C52.0807 7.91895 52.2793 7.88802 52.4258 7.82617C52.5723 7.76107 52.6764 7.67155 52.7383 7.55762C52.8001 7.44368 52.8311 7.31022 52.8311 7.15723C52.8311 7.02051 52.7952 6.89193 52.7236 6.77148C52.6553 6.64779 52.5446 6.5485 52.3916 6.47363C52.2386 6.39551 52.0335 6.35645 51.7764 6.35645C51.568 6.35645 51.3792 6.39388 51.21 6.46875C51.0407 6.54036 50.9056 6.63965 50.8047 6.7666C50.707 6.8903 50.6582 7.03027 50.6582 7.18652H49.7549C49.7549 6.86426 49.846 6.58757 50.0283 6.35645C50.2139 6.12207 50.4596 5.94141 50.7656 5.81445C51.0749 5.6875 51.4118 5.62402 51.7764 5.62402C52.0824 5.62402 52.3558 5.6582 52.5967 5.72656C52.8408 5.79167 53.0475 5.88932 53.2168 6.01953C53.3861 6.14648 53.5146 6.30599 53.6025 6.49805C53.6937 6.68685 53.7393 6.90658 53.7393 7.15723C53.7393 7.33626 53.6969 7.50553 53.6123 7.66504C53.5277 7.82454 53.4056 7.96615 53.2461 8.08984C53.0866 8.21029 52.8929 8.30469 52.665 8.37305C52.4404 8.44141 52.1865 8.47559 51.9033 8.47559ZM50.9316 8.13379H51.9033C52.2191 8.13379 52.4974 8.16471 52.7383 8.22656C52.9792 8.28516 53.181 8.37305 53.3438 8.49023C53.5065 8.60742 53.6286 8.75228 53.71 8.9248C53.7946 9.09408 53.8369 9.28939 53.8369 9.51074C53.8369 9.75814 53.7865 9.98112 53.6855 10.1797C53.5879 10.375 53.4479 10.541 53.2656 10.6777C53.0833 10.8145 52.8652 10.9186 52.6113 10.9902C52.3607 11.0618 52.0824 11.0977 51.7764 11.0977C51.4346 11.0977 51.1025 11.0391 50.7803 10.9219C50.458 10.8047 50.1927 10.624 49.9844 10.3799C49.776 10.1325 49.6719 9.81836 49.6719 9.4375H50.5752C50.5752 9.59701 50.6257 9.74837 50.7266 9.8916C50.8275 10.0348 50.9674 10.1504 51.1465 10.2383C51.3288 10.3262 51.5387 10.3701 51.7764 10.3701C52.0303 10.3701 52.2419 10.3311 52.4111 10.2529C52.5804 10.1748 52.7074 10.0706 52.792 9.94043C52.8799 9.81022 52.9238 9.66862 52.9238 9.51562C52.9238 9.31706 52.8848 9.15755 52.8066 9.03711C52.7285 8.91667 52.6081 8.82878 52.4453 8.77344C52.2858 8.71484 52.0807 8.68555 51.8301 8.68555H50.9316V8.13379ZM58.124 10.0967V7.37695C58.124 7.16862 58.0817 6.98796 57.9971 6.83496C57.9157 6.67871 57.792 6.55827 57.626 6.47363C57.46 6.389 57.2549 6.34668 57.0107 6.34668C56.7829 6.34668 56.5827 6.38574 56.4102 6.46387C56.2409 6.54199 56.1074 6.64453 56.0098 6.77148C55.9154 6.89844 55.8682 7.03516 55.8682 7.18164H54.9648C54.9648 6.99284 55.0137 6.80566 55.1113 6.62012C55.209 6.43457 55.349 6.26693 55.5312 6.11719C55.7168 5.96419 55.9382 5.84375 56.1953 5.75586C56.4557 5.66471 56.7454 5.61914 57.0645 5.61914C57.4486 5.61914 57.7871 5.68424 58.0801 5.81445C58.3763 5.94466 58.6074 6.1416 58.7734 6.40527C58.9427 6.66569 59.0273 6.99284 59.0273 7.38672V9.84766C59.0273 10.0234 59.042 10.2106 59.0713 10.4092C59.1038 10.6077 59.151 10.7786 59.2129 10.9219V11H58.2705C58.2249 10.8958 58.1891 10.7575 58.1631 10.585C58.137 10.4092 58.124 10.2464 58.124 10.0967ZM58.2803 7.79688L58.29 8.43164H57.377C57.1198 8.43164 56.8903 8.4528 56.6885 8.49512C56.4867 8.53418 56.3174 8.5944 56.1807 8.67578C56.0439 8.75716 55.9398 8.8597 55.8682 8.9834C55.7965 9.10384 55.7607 9.24544 55.7607 9.4082C55.7607 9.57422 55.7982 9.72559 55.873 9.8623C55.9479 9.99902 56.0602 10.1081 56.21 10.1895C56.363 10.2676 56.5501 10.3066 56.7715 10.3066C57.0482 10.3066 57.2923 10.248 57.5039 10.1309C57.7155 10.0137 57.8831 9.87044 58.0068 9.70117C58.1338 9.5319 58.2021 9.36751 58.2119 9.20801L58.5977 9.64258C58.5749 9.7793 58.513 9.93066 58.4121 10.0967C58.3112 10.2627 58.1761 10.4222 58.0068 10.5752C57.8408 10.7249 57.6423 10.8503 57.4111 10.9512C57.1833 11.0488 56.9261 11.0977 56.6396 11.0977C56.2816 11.0977 55.9674 11.0277 55.6973 10.8877C55.4303 10.7477 55.222 10.5605 55.0723 10.3262C54.9258 10.0885 54.8525 9.82324 54.8525 9.53027C54.8525 9.24707 54.9079 8.99805 55.0186 8.7832C55.1292 8.5651 55.2887 8.38444 55.4971 8.24121C55.7054 8.09473 55.9561 7.98405 56.249 7.90918C56.542 7.83431 56.8691 7.79688 57.2305 7.79688H58.2803ZM63.8613 5.7168V6.46387H61.4199V11H60.5166V5.7168H63.8613ZM65.5508 6.73242V13.0312H64.6426V5.7168H65.4727L65.5508 6.73242ZM69.1104 8.31445V8.41699C69.1104 8.80111 69.0648 9.15755 68.9736 9.48633C68.8825 9.81185 68.749 10.0951 68.5732 10.3359C68.4007 10.5768 68.1875 10.764 67.9336 10.8975C67.6797 11.0309 67.3883 11.0977 67.0596 11.0977C66.7243 11.0977 66.4281 11.0423 66.1709 10.9316C65.9137 10.821 65.6956 10.6598 65.5166 10.4482C65.3376 10.2367 65.1943 9.98275 65.0869 9.68652C64.9827 9.3903 64.9111 9.05664 64.8721 8.68555V8.13867C64.9111 7.74805 64.9844 7.39811 65.0918 7.08887C65.1992 6.77962 65.3408 6.51595 65.5166 6.29785C65.6956 6.0765 65.9121 5.90885 66.166 5.79492C66.4199 5.67773 66.7129 5.61914 67.0449 5.61914C67.377 5.61914 67.6715 5.68424 67.9287 5.81445C68.1859 5.94141 68.4023 6.1237 68.5781 6.36133C68.7539 6.59896 68.8857 6.88379 68.9736 7.21582C69.0648 7.5446 69.1104 7.91081 69.1104 8.31445ZM68.2021 8.41699V8.31445C68.2021 8.05078 68.1745 7.80339 68.1191 7.57227C68.0638 7.33789 67.9775 7.13281 67.8604 6.95703C67.7464 6.77799 67.5999 6.63802 67.4209 6.53711C67.2419 6.43294 67.0286 6.38086 66.7812 6.38086C66.5534 6.38086 66.3548 6.41992 66.1855 6.49805C66.0195 6.57617 65.8779 6.68197 65.7607 6.81543C65.6436 6.94564 65.5475 7.09538 65.4727 7.26465C65.401 7.43066 65.3473 7.60319 65.3115 7.78223V9.04688C65.3766 9.27474 65.4678 9.48958 65.585 9.69141C65.7021 9.88997 65.8584 10.0511 66.0537 10.1748C66.249 10.2952 66.4948 10.3555 66.791 10.3555C67.0352 10.3555 67.2451 10.305 67.4209 10.2041C67.5999 10.0999 67.7464 9.95833 67.8604 9.7793C67.9775 9.60026 68.0638 9.39518 68.1191 9.16406C68.1745 8.92969 68.2021 8.68066 68.2021 8.41699ZM71.6885 10.4531L73.1582 5.7168H74.125L72.0059 11.8154C71.957 11.9456 71.8919 12.0856 71.8105 12.2354C71.7324 12.3883 71.6315 12.5332 71.5078 12.6699C71.3841 12.8066 71.2344 12.9173 71.0586 13.002C70.8861 13.0898 70.6794 13.1338 70.4385 13.1338C70.3669 13.1338 70.2757 13.124 70.165 13.1045C70.0544 13.085 69.9762 13.0687 69.9307 13.0557L69.9258 12.3232C69.9518 12.3265 69.9925 12.3298 70.0479 12.333C70.1064 12.3395 70.1471 12.3428 70.1699 12.3428C70.375 12.3428 70.5492 12.3151 70.6924 12.2598C70.8356 12.2077 70.9561 12.1182 71.0537 11.9912C71.1546 11.8675 71.2409 11.6966 71.3125 11.4785L71.6885 10.4531ZM70.6094 5.7168L71.9814 9.81836L72.2158 10.7705L71.5664 11.1025L69.623 5.7168H70.6094ZM76.9131 8.47559H75.9414V7.91895H76.8398C77.0905 7.91895 77.2891 7.88802 77.4355 7.82617C77.582 7.76107 77.6862 7.67155 77.748 7.55762C77.8099 7.44368 77.8408 7.31022 77.8408 7.15723C77.8408 7.02051 77.805 6.89193 77.7334 6.77148C77.665 6.64779 77.5544 6.5485 77.4014 6.47363C77.2484 6.39551 77.0433 6.35645 76.7861 6.35645C76.5778 6.35645 76.389 6.39388 76.2197 6.46875C76.0505 6.54036 75.9154 6.63965 75.8145 6.7666C75.7168 6.8903 75.668 7.03027 75.668 7.18652H74.7646C74.7646 6.86426 74.8558 6.58757 75.0381 6.35645C75.2236 6.12207 75.4694 5.94141 75.7754 5.81445C76.0846 5.6875 76.4215 5.62402 76.7861 5.62402C77.0921 5.62402 77.3656 5.6582 77.6064 5.72656C77.8506 5.79167 78.0573 5.88932 78.2266 6.01953C78.3958 6.14648 78.5244 6.30599 78.6123 6.49805C78.7035 6.68685 78.749 6.90658 78.749 7.15723C78.749 7.33626 78.7067 7.50553 78.6221 7.66504C78.5374 7.82454 78.4154 7.96615 78.2559 8.08984C78.0964 8.21029 77.9027 8.30469 77.6748 8.37305C77.4502 8.44141 77.1963 8.47559 76.9131 8.47559ZM75.9414 8.13379H76.9131C77.2288 8.13379 77.5072 8.16471 77.748 8.22656C77.9889 8.28516 78.1908 8.37305 78.3535 8.49023C78.5163 8.60742 78.6383 8.75228 78.7197 8.9248C78.8044 9.09408 78.8467 9.28939 78.8467 9.51074C78.8467 9.75814 78.7962 9.98112 78.6953 10.1797C78.5977 10.375 78.4577 10.541 78.2754 10.6777C78.0931 10.8145 77.875 10.9186 77.6211 10.9902C77.3704 11.0618 77.0921 11.0977 76.7861 11.0977C76.4443 11.0977 76.1123 11.0391 75.79 10.9219C75.4678 10.8047 75.2025 10.624 74.9941 10.3799C74.7858 10.1325 74.6816 9.81836 74.6816 9.4375H75.585C75.585 9.59701 75.6354 9.74837 75.7363 9.8916C75.8372 10.0348 75.9772 10.1504 76.1562 10.2383C76.3385 10.3262 76.5485 10.3701 76.7861 10.3701C77.04 10.3701 77.2516 10.3311 77.4209 10.2529C77.5902 10.1748 77.7171 10.0706 77.8018 9.94043C77.8896 9.81022 77.9336 9.66862 77.9336 9.51562C77.9336 9.31706 77.8945 9.15755 77.8164 9.03711C77.7383 8.91667 77.6178 8.82878 77.4551 8.77344C77.2956 8.71484 77.0905 8.68555 76.8398 8.68555H75.9414V8.13379ZM81 5.7168V11H80.0967V5.7168H81ZM84.4668 5.7168L81.9619 8.74414H80.6973L80.5605 7.95312H81.5957L83.3682 5.7168H84.4668ZM83.4951 11L81.5518 8.60742L82.1328 7.95312L84.6426 11H83.4951ZM88.5439 10.0967V7.37695C88.5439 7.16862 88.5016 6.98796 88.417 6.83496C88.3356 6.67871 88.2119 6.55827 88.0459 6.47363C87.8799 6.389 87.6748 6.34668 87.4307 6.34668C87.2028 6.34668 87.0026 6.38574 86.8301 6.46387C86.6608 6.54199 86.5273 6.64453 86.4297 6.77148C86.3353 6.89844 86.2881 7.03516 86.2881 7.18164H85.3848C85.3848 6.99284 85.4336 6.80566 85.5312 6.62012C85.6289 6.43457 85.7689 6.26693 85.9512 6.11719C86.1367 5.96419 86.3581 5.84375 86.6152 5.75586C86.8757 5.66471 87.1654 5.61914 87.4844 5.61914C87.8685 5.61914 88.207 5.68424 88.5 5.81445C88.7962 5.94466 89.0273 6.1416 89.1934 6.40527C89.3626 6.66569 89.4473 6.99284 89.4473 7.38672V9.84766C89.4473 10.0234 89.4619 10.2106 89.4912 10.4092C89.5238 10.6077 89.571 10.7786 89.6328 10.9219V11H88.6904C88.6449 10.8958 88.609 10.7575 88.583 10.585C88.557 10.4092 88.5439 10.2464 88.5439 10.0967ZM88.7002 7.79688L88.71 8.43164H87.7969C87.5397 8.43164 87.3102 8.4528 87.1084 8.49512C86.9066 8.53418 86.7373 8.5944 86.6006 8.67578C86.4639 8.75716 86.3597 8.8597 86.2881 8.9834C86.2165 9.10384 86.1807 9.24544 86.1807 9.4082C86.1807 9.57422 86.2181 9.72559 86.293 9.8623C86.3678 9.99902 86.4801 10.1081 86.6299 10.1895C86.7829 10.2676 86.9701 10.3066 87.1914 10.3066C87.4681 10.3066 87.7122 10.248 87.9238 10.1309C88.1354 10.0137 88.3031 9.87044 88.4268 9.70117C88.5537 9.5319 88.6221 9.36751 88.6318 9.20801L89.0176 9.64258C88.9948 9.7793 88.9329 9.93066 88.832 10.0967C88.7311 10.2627 88.596 10.4222 88.4268 10.5752C88.2607 10.7249 88.0622 10.8503 87.8311 10.9512C87.6032 11.0488 87.346 11.0977 87.0596 11.0977C86.7015 11.0977 86.3874 11.0277 86.1172 10.8877C85.8503 10.7477 85.6419 10.5605 85.4922 10.3262C85.3457 10.0885 85.2725 9.82324 85.2725 9.53027C85.2725 9.24707 85.3278 8.99805 85.4385 8.7832C85.5492 8.5651 85.7087 8.38444 85.917 8.24121C86.1253 8.09473 86.376 7.98405 86.6689 7.90918C86.9619 7.83431 87.2891 7.79688 87.6504 7.79688H88.7002Z" fill="#F3F7FA"/>
</svg>
