<svg width="89" height="16" viewBox="0 0 89 16" fill="none" xmlns="http://www.w3.org/2000/svg">
<rect width="89" height="16" rx="8" fill="#4CC864"/>
<path d="M10.2725 8.00684V8.73926H7.47949V8.00684H10.2725ZM7.66992 5.7168V11H6.7666V5.7168H7.66992ZM11.0049 5.7168V11H10.0967V5.7168H11.0049ZM13.4365 9.56934L15.873 5.7168H16.7812V11H15.873V7.14746L13.4365 11H12.5381V5.7168H13.4365V9.56934ZM20.2041 8.47559H19.2324V7.91895H20.1309C20.3815 7.91895 20.5801 7.88802 20.7266 7.82617C20.873 7.76107 20.9772 7.67155 21.0391 7.55762C21.1009 7.44368 21.1318 7.31022 21.1318 7.15723C21.1318 7.02051 21.096 6.89193 21.0244 6.77148C20.9561 6.64779 20.8454 6.5485 20.6924 6.47363C20.5394 6.39551 20.3343 6.35645 20.0771 6.35645C19.8688 6.35645 19.68 6.39388 19.5107 6.46875C19.3415 6.54036 19.2064 6.63965 19.1055 6.7666C19.0078 6.8903 18.959 7.03027 18.959 7.18652H18.0557C18.0557 6.86426 18.1468 6.58757 18.3291 6.35645C18.5146 6.12207 18.7604 5.94141 19.0664 5.81445C19.3757 5.6875 19.7126 5.62402 20.0771 5.62402C20.3831 5.62402 20.6566 5.6582 20.8975 5.72656C21.1416 5.79167 21.3483 5.88932 21.5176 6.01953C21.6868 6.14648 21.8154 6.30599 21.9033 6.49805C21.9945 6.68685 22.04 6.90658 22.04 7.15723C22.04 7.33626 21.9977 7.50553 21.9131 7.66504C21.8285 7.82454 21.7064 7.96615 21.5469 8.08984C21.3874 8.21029 21.1937 8.30469 20.9658 8.37305C20.7412 8.44141 20.4873 8.47559 20.2041 8.47559ZM19.2324 8.13379H20.2041C20.5199 8.13379 20.7982 8.16471 21.0391 8.22656C21.2799 8.28516 21.4818 8.37305 21.6445 8.49023C21.8073 8.60742 21.9294 8.75228 22.0107 8.9248C22.0954 9.09408 22.1377 9.28939 22.1377 9.51074C22.1377 9.75814 22.0872 9.98112 21.9863 10.1797C21.8887 10.375 21.7487 10.541 21.5664 10.6777C21.3841 10.8145 21.166 10.9186 20.9121 10.9902C20.6615 11.0618 20.3831 11.0977 20.0771 11.0977C19.7354 11.0977 19.4033 11.0391 19.0811 10.9219C18.7588 10.8047 18.4935 10.624 18.2852 10.3799C18.0768 10.1325 17.9727 9.81836 17.9727 9.4375H18.876C18.876 9.59701 18.9264 9.74837 19.0273 9.8916C19.1283 10.0348 19.2682 10.1504 19.4473 10.2383C19.6296 10.3262 19.8395 10.3701 20.0771 10.3701C20.3311 10.3701 20.5426 10.3311 20.7119 10.2529C20.8812 10.1748 21.0081 10.0706 21.0928 9.94043C21.1807 9.81022 21.2246 9.66862 21.2246 9.51562C21.2246 9.31706 21.1855 9.15755 21.1074 9.03711C21.0293 8.91667 20.9089 8.82878 20.7461 8.77344C20.5866 8.71484 20.3815 8.68555 20.1309 8.68555H19.2324V8.13379ZM24.291 5.7168V11H23.3877V5.7168H24.291ZM27.7578 5.7168L25.2529 8.74414H23.9883L23.8516 7.95312H24.8867L26.6592 5.7168H27.7578ZM26.7861 11L24.8428 8.60742L25.4238 7.95312L27.9336 11H26.7861ZM31.835 10.0967V7.37695C31.835 7.16862 31.7926 6.98796 31.708 6.83496C31.6266 6.67871 31.5029 6.55827 31.3369 6.47363C31.1709 6.389 30.9658 6.34668 30.7217 6.34668C30.4938 6.34668 30.2936 6.38574 30.1211 6.46387C29.9518 6.54199 29.8184 6.64453 29.7207 6.77148C29.6263 6.89844 29.5791 7.03516 29.5791 7.18164H28.6758C28.6758 6.99284 28.7246 6.80566 28.8223 6.62012C28.9199 6.43457 29.0599 6.26693 29.2422 6.11719C29.4277 5.96419 29.6491 5.84375 29.9062 5.75586C30.1667 5.66471 30.4564 5.61914 30.7754 5.61914C31.1595 5.61914 31.498 5.68424 31.791 5.81445C32.0872 5.94466 32.3184 6.1416 32.4844 6.40527C32.6536 6.66569 32.7383 6.99284 32.7383 7.38672V9.84766C32.7383 10.0234 32.7529 10.2106 32.7822 10.4092C32.8148 10.6077 32.862 10.7786 32.9238 10.9219V11H31.9814C31.9359 10.8958 31.9001 10.7575 31.874 10.585C31.848 10.4092 31.835 10.2464 31.835 10.0967ZM31.9912 7.79688L32.001 8.43164H31.0879C30.8307 8.43164 30.6012 8.4528 30.3994 8.49512C30.1976 8.53418 30.0283 8.5944 29.8916 8.67578C29.7549 8.75716 29.6507 8.8597 29.5791 8.9834C29.5075 9.10384 29.4717 9.24544 29.4717 9.4082C29.4717 9.57422 29.5091 9.72559 29.584 9.8623C29.6589 9.99902 29.7712 10.1081 29.9209 10.1895C30.0739 10.2676 30.2611 10.3066 30.4824 10.3066C30.7591 10.3066 31.0033 10.248 31.2148 10.1309C31.4264 10.0137 31.5941 9.87044 31.7178 9.70117C31.8447 9.5319 31.9131 9.36751 31.9229 9.20801L32.3086 9.64258C32.2858 9.7793 32.224 9.93066 32.123 10.0967C32.0221 10.2627 31.887 10.4222 31.7178 10.5752C31.5518 10.7249 31.3532 10.8503 31.1221 10.9512C30.8942 11.0488 30.637 11.0977 30.3506 11.0977C29.9925 11.0977 29.6784 11.0277 29.4082 10.8877C29.1413 10.7477 28.9329 10.5605 28.7832 10.3262C28.6367 10.0885 28.5635 9.82324 28.5635 9.53027C28.5635 9.24707 28.6188 8.99805 28.7295 8.7832C28.8402 8.5651 28.9997 8.38444 29.208 8.24121C29.4163 8.09473 29.667 7.98405 29.96 7.90918C30.2529 7.83431 30.5801 7.79688 30.9414 7.79688H31.9912ZM35.2285 8.48047H36.2051L34.6768 11H33.7002L35.2285 8.48047ZM35.9854 5.7168H38.1924V11H37.2891V6.44922H35.9854C35.7282 6.44922 35.5182 6.49316 35.3555 6.58105C35.1927 6.66569 35.0739 6.77637 34.999 6.91309C34.9242 7.0498 34.8867 7.19141 34.8867 7.33789C34.8867 7.48112 34.9209 7.61947 34.9893 7.75293C35.0576 7.88314 35.165 7.99056 35.3115 8.0752C35.458 8.15983 35.6468 8.20215 35.8779 8.20215H37.5332V8.94434H35.8779C35.5752 8.94434 35.3066 8.90365 35.0723 8.82227C34.8379 8.74089 34.6393 8.62858 34.4766 8.48535C34.3138 8.33887 34.1901 8.16797 34.1055 7.97266C34.0208 7.77409 33.9785 7.55924 33.9785 7.32812C33.9785 7.09701 34.0225 6.88379 34.1104 6.68848C34.2015 6.49316 34.3317 6.32227 34.501 6.17578C34.6735 6.0293 34.8835 5.91699 35.1309 5.83887C35.3815 5.75749 35.6663 5.7168 35.9854 5.7168ZM44.1006 8.47559H43.1289V7.91895H44.0273C44.278 7.91895 44.4766 7.88802 44.623 7.82617C44.7695 7.76107 44.8737 7.67155 44.9355 7.55762C44.9974 7.44368 45.0283 7.31022 45.0283 7.15723C45.0283 7.02051 44.9925 6.89193 44.9209 6.77148C44.8525 6.64779 44.7419 6.5485 44.5889 6.47363C44.4359 6.39551 44.2308 6.35645 43.9736 6.35645C43.7653 6.35645 43.5765 6.39388 43.4072 6.46875C43.238 6.54036 43.1029 6.63965 43.002 6.7666C42.9043 6.8903 42.8555 7.03027 42.8555 7.18652H41.9521C41.9521 6.86426 42.0433 6.58757 42.2256 6.35645C42.4111 6.12207 42.6569 5.94141 42.9629 5.81445C43.2721 5.6875 43.609 5.62402 43.9736 5.62402C44.2796 5.62402 44.5531 5.6582 44.7939 5.72656C45.0381 5.79167 45.2448 5.88932 45.4141 6.01953C45.5833 6.14648 45.7119 6.30599 45.7998 6.49805C45.891 6.68685 45.9365 6.90658 45.9365 7.15723C45.9365 7.33626 45.8942 7.50553 45.8096 7.66504C45.7249 7.82454 45.6029 7.96615 45.4434 8.08984C45.2839 8.21029 45.0902 8.30469 44.8623 8.37305C44.6377 8.44141 44.3838 8.47559 44.1006 8.47559ZM43.1289 8.13379H44.1006C44.4163 8.13379 44.6947 8.16471 44.9355 8.22656C45.1764 8.28516 45.3783 8.37305 45.541 8.49023C45.7038 8.60742 45.8258 8.75228 45.9072 8.9248C45.9919 9.09408 46.0342 9.28939 46.0342 9.51074C46.0342 9.75814 45.9837 9.98112 45.8828 10.1797C45.7852 10.375 45.6452 10.541 45.4629 10.6777C45.2806 10.8145 45.0625 10.9186 44.8086 10.9902C44.5579 11.0618 44.2796 11.0977 43.9736 11.0977C43.6318 11.0977 43.2998 11.0391 42.9775 10.9219C42.6553 10.8047 42.39 10.624 42.1816 10.3799C41.9733 10.1325 41.8691 9.81836 41.8691 9.4375H42.7725C42.7725 9.59701 42.8229 9.74837 42.9238 9.8916C43.0247 10.0348 43.1647 10.1504 43.3438 10.2383C43.526 10.3262 43.736 10.3701 43.9736 10.3701C44.2275 10.3701 44.4391 10.3311 44.6084 10.2529C44.7777 10.1748 44.9046 10.0706 44.9893 9.94043C45.0771 9.81022 45.1211 9.66862 45.1211 9.51562C45.1211 9.31706 45.082 9.15755 45.0039 9.03711C44.9258 8.91667 44.8053 8.82878 44.6426 8.77344C44.4831 8.71484 44.278 8.68555 44.0273 8.68555H43.1289V8.13379ZM50.3213 10.0967V7.37695C50.3213 7.16862 50.279 6.98796 50.1943 6.83496C50.113 6.67871 49.9893 6.55827 49.8232 6.47363C49.6572 6.389 49.4521 6.34668 49.208 6.34668C48.9801 6.34668 48.7799 6.38574 48.6074 6.46387C48.4382 6.54199 48.3047 6.64453 48.207 6.77148C48.1126 6.89844 48.0654 7.03516 48.0654 7.18164H47.1621C47.1621 6.99284 47.2109 6.80566 47.3086 6.62012C47.4062 6.43457 47.5462 6.26693 47.7285 6.11719C47.9141 5.96419 48.1354 5.84375 48.3926 5.75586C48.653 5.66471 48.9427 5.61914 49.2617 5.61914C49.6458 5.61914 49.9844 5.68424 50.2773 5.81445C50.5736 5.94466 50.8047 6.1416 50.9707 6.40527C51.14 6.66569 51.2246 6.99284 51.2246 7.38672V9.84766C51.2246 10.0234 51.2393 10.2106 51.2686 10.4092C51.3011 10.6077 51.3483 10.7786 51.4102 10.9219V11H50.4678C50.4222 10.8958 50.3864 10.7575 50.3604 10.585C50.3343 10.4092 50.3213 10.2464 50.3213 10.0967ZM50.4775 7.79688L50.4873 8.43164H49.5742C49.3171 8.43164 49.0876 8.4528 48.8857 8.49512C48.6839 8.53418 48.5146 8.5944 48.3779 8.67578C48.2412 8.75716 48.137 8.8597 48.0654 8.9834C47.9938 9.10384 47.958 9.24544 47.958 9.4082C47.958 9.57422 47.9954 9.72559 48.0703 9.8623C48.1452 9.99902 48.2575 10.1081 48.4072 10.1895C48.5602 10.2676 48.7474 10.3066 48.9688 10.3066C49.2454 10.3066 49.4896 10.248 49.7012 10.1309C49.9128 10.0137 50.0804 9.87044 50.2041 9.70117C50.3311 9.5319 50.3994 9.36751 50.4092 9.20801L50.7949 9.64258C50.7721 9.7793 50.7103 9.93066 50.6094 10.0967C50.5085 10.2627 50.3734 10.4222 50.2041 10.5752C50.0381 10.7249 49.8395 10.8503 49.6084 10.9512C49.3805 11.0488 49.1234 11.0977 48.8369 11.0977C48.4788 11.0977 48.1647 11.0277 47.8945 10.8877C47.6276 10.7477 47.4193 10.5605 47.2695 10.3262C47.123 10.0885 47.0498 9.82324 47.0498 9.53027C47.0498 9.24707 47.1051 8.99805 47.2158 8.7832C47.3265 8.5651 47.486 8.38444 47.6943 8.24121C47.9027 8.09473 48.1533 7.98405 48.4463 7.90918C48.7393 7.83431 49.0664 7.79688 49.4277 7.79688H50.4775ZM56.0586 5.7168V6.46387H53.6172V11H52.7139V5.7168H56.0586ZM57.748 6.73242V13.0312H56.8398V5.7168H57.6699L57.748 6.73242ZM61.3076 8.31445V8.41699C61.3076 8.80111 61.262 9.15755 61.1709 9.48633C61.0798 9.81185 60.9463 10.0951 60.7705 10.3359C60.598 10.5768 60.3848 10.764 60.1309 10.8975C59.877 11.0309 59.5856 11.0977 59.2568 11.0977C58.9215 11.0977 58.6253 11.0423 58.3682 10.9316C58.111 10.821 57.8929 10.6598 57.7139 10.4482C57.5348 10.2367 57.3916 9.98275 57.2842 9.68652C57.18 9.3903 57.1084 9.05664 57.0693 8.68555V8.13867C57.1084 7.74805 57.1816 7.39811 57.2891 7.08887C57.3965 6.77962 57.5381 6.51595 57.7139 6.29785C57.8929 6.0765 58.1094 5.90885 58.3633 5.79492C58.6172 5.67773 58.9102 5.61914 59.2422 5.61914C59.5742 5.61914 59.8688 5.68424 60.126 5.81445C60.3831 5.94141 60.5996 6.1237 60.7754 6.36133C60.9512 6.59896 61.083 6.88379 61.1709 7.21582C61.262 7.5446 61.3076 7.91081 61.3076 8.31445ZM60.3994 8.41699V8.31445C60.3994 8.05078 60.3717 7.80339 60.3164 7.57227C60.2611 7.33789 60.1748 7.13281 60.0576 6.95703C59.9437 6.77799 59.7972 6.63802 59.6182 6.53711C59.4391 6.43294 59.2259 6.38086 58.9785 6.38086C58.7507 6.38086 58.5521 6.41992 58.3828 6.49805C58.2168 6.57617 58.0752 6.68197 57.958 6.81543C57.8408 6.94564 57.7448 7.09538 57.6699 7.26465C57.5983 7.43066 57.5446 7.60319 57.5088 7.78223V9.04688C57.5739 9.27474 57.665 9.48958 57.7822 9.69141C57.8994 9.88997 58.0557 10.0511 58.251 10.1748C58.4463 10.2952 58.6921 10.3555 58.9883 10.3555C59.2324 10.3555 59.4424 10.305 59.6182 10.2041C59.7972 10.0999 59.9437 9.95833 60.0576 9.7793C60.1748 9.60026 60.2611 9.39518 60.3164 9.16406C60.3717 8.92969 60.3994 8.68066 60.3994 8.41699ZM63.8857 10.4531L65.3555 5.7168H66.3223L64.2031 11.8154C64.1543 11.9456 64.0892 12.0856 64.0078 12.2354C63.9297 12.3883 63.8288 12.5332 63.7051 12.6699C63.5814 12.8066 63.4316 12.9173 63.2559 13.002C63.0833 13.0898 62.8766 13.1338 62.6357 13.1338C62.5641 13.1338 62.473 13.124 62.3623 13.1045C62.2516 13.085 62.1735 13.0687 62.1279 13.0557L62.123 12.3232C62.1491 12.3265 62.1898 12.3298 62.2451 12.333C62.3037 12.3395 62.3444 12.3428 62.3672 12.3428C62.5723 12.3428 62.7464 12.3151 62.8896 12.2598C63.0329 12.2077 63.1533 12.1182 63.251 11.9912C63.3519 11.8675 63.4382 11.6966 63.5098 11.4785L63.8857 10.4531ZM62.8066 5.7168L64.1787 9.81836L64.4131 10.7705L63.7637 11.1025L61.8203 5.7168H62.8066ZM69.1104 8.47559H68.1387V7.91895H69.0371C69.2878 7.91895 69.4863 7.88802 69.6328 7.82617C69.7793 7.76107 69.8835 7.67155 69.9453 7.55762C70.0072 7.44368 70.0381 7.31022 70.0381 7.15723C70.0381 7.02051 70.0023 6.89193 69.9307 6.77148C69.8623 6.64779 69.7516 6.5485 69.5986 6.47363C69.4456 6.39551 69.2406 6.35645 68.9834 6.35645C68.7751 6.35645 68.5863 6.39388 68.417 6.46875C68.2477 6.54036 68.1126 6.63965 68.0117 6.7666C67.9141 6.8903 67.8652 7.03027 67.8652 7.18652H66.9619C66.9619 6.86426 67.0531 6.58757 67.2354 6.35645C67.4209 6.12207 67.6667 5.94141 67.9727 5.81445C68.2819 5.6875 68.6188 5.62402 68.9834 5.62402C69.2894 5.62402 69.5628 5.6582 69.8037 5.72656C70.0479 5.79167 70.2546 5.88932 70.4238 6.01953C70.5931 6.14648 70.7217 6.30599 70.8096 6.49805C70.9007 6.68685 70.9463 6.90658 70.9463 7.15723C70.9463 7.33626 70.904 7.50553 70.8193 7.66504C70.7347 7.82454 70.6126 7.96615 70.4531 8.08984C70.2936 8.21029 70.0999 8.30469 69.8721 8.37305C69.6475 8.44141 69.3936 8.47559 69.1104 8.47559ZM68.1387 8.13379H69.1104C69.4261 8.13379 69.7044 8.16471 69.9453 8.22656C70.1862 8.28516 70.388 8.37305 70.5508 8.49023C70.7135 8.60742 70.8356 8.75228 70.917 8.9248C71.0016 9.09408 71.0439 9.28939 71.0439 9.51074C71.0439 9.75814 70.9935 9.98112 70.8926 10.1797C70.7949 10.375 70.6549 10.541 70.4727 10.6777C70.2904 10.8145 70.0723 10.9186 69.8184 10.9902C69.5677 11.0618 69.2894 11.0977 68.9834 11.0977C68.6416 11.0977 68.3096 11.0391 67.9873 10.9219C67.665 10.8047 67.3997 10.624 67.1914 10.3799C66.9831 10.1325 66.8789 9.81836 66.8789 9.4375H67.7822C67.7822 9.59701 67.8327 9.74837 67.9336 9.8916C68.0345 10.0348 68.1745 10.1504 68.3535 10.2383C68.5358 10.3262 68.7458 10.3701 68.9834 10.3701C69.2373 10.3701 69.4489 10.3311 69.6182 10.2529C69.7874 10.1748 69.9144 10.0706 69.999 9.94043C70.0869 9.81022 70.1309 9.66862 70.1309 9.51562C70.1309 9.31706 70.0918 9.15755 70.0137 9.03711C69.9355 8.91667 69.8151 8.82878 69.6523 8.77344C69.4928 8.71484 69.2878 8.68555 69.0371 8.68555H68.1387V8.13379ZM73.1973 5.7168V11H72.2939V5.7168H73.1973ZM76.6641 5.7168L74.1592 8.74414H72.8945L72.7578 7.95312H73.793L75.5654 5.7168H76.6641ZM75.6924 11L73.749 8.60742L74.3301 7.95312L76.8398 11H75.6924ZM80.7412 10.0967V7.37695C80.7412 7.16862 80.6989 6.98796 80.6143 6.83496C80.5329 6.67871 80.4092 6.55827 80.2432 6.47363C80.0771 6.389 79.8721 6.34668 79.6279 6.34668C79.4001 6.34668 79.1999 6.38574 79.0273 6.46387C78.8581 6.54199 78.7246 6.64453 78.627 6.77148C78.5326 6.89844 78.4854 7.03516 78.4854 7.18164H77.582C77.582 6.99284 77.6309 6.80566 77.7285 6.62012C77.8262 6.43457 77.9661 6.26693 78.1484 6.11719C78.334 5.96419 78.5553 5.84375 78.8125 5.75586C79.0729 5.66471 79.3626 5.61914 79.6816 5.61914C80.0658 5.61914 80.4043 5.68424 80.6973 5.81445C80.9935 5.94466 81.2246 6.1416 81.3906 6.40527C81.5599 6.66569 81.6445 6.99284 81.6445 7.38672V9.84766C81.6445 10.0234 81.6592 10.2106 81.6885 10.4092C81.721 10.6077 81.7682 10.7786 81.8301 10.9219V11H80.8877C80.8421 10.8958 80.8063 10.7575 80.7803 10.585C80.7542 10.4092 80.7412 10.2464 80.7412 10.0967ZM80.8975 7.79688L80.9072 8.43164H79.9941C79.737 8.43164 79.5075 8.4528 79.3057 8.49512C79.1038 8.53418 78.9346 8.5944 78.7979 8.67578C78.6611 8.75716 78.557 8.8597 78.4854 8.9834C78.4137 9.10384 78.3779 9.24544 78.3779 9.4082C78.3779 9.57422 78.4154 9.72559 78.4902 9.8623C78.5651 9.99902 78.6774 10.1081 78.8271 10.1895C78.9801 10.2676 79.1673 10.3066 79.3887 10.3066C79.6654 10.3066 79.9095 10.248 80.1211 10.1309C80.3327 10.0137 80.5003 9.87044 80.624 9.70117C80.751 9.5319 80.8193 9.36751 80.8291 9.20801L81.2148 9.64258C81.1921 9.7793 81.1302 9.93066 81.0293 10.0967C80.9284 10.2627 80.7933 10.4222 80.624 10.5752C80.458 10.7249 80.2594 10.8503 80.0283 10.9512C79.8005 11.0488 79.5433 11.0977 79.2568 11.0977C78.8988 11.0977 78.5846 11.0277 78.3145 10.8877C78.0475 10.7477 77.8392 10.5605 77.6895 10.3262C77.543 10.0885 77.4697 9.82324 77.4697 9.53027C77.4697 9.24707 77.5251 8.99805 77.6357 8.7832C77.7464 8.5651 77.9059 8.38444 78.1143 8.24121C78.3226 8.09473 78.5732 7.98405 78.8662 7.90918C79.1592 7.83431 79.4863 7.79688 79.8477 7.79688H80.8975Z" fill="#F3F7FA"/>
</svg>
